<svg width="31" height="21" viewBox="0 0 31 21" fill="none" xmlns="http://www.w3.org/2000/svg">
<path fill-rule="evenodd" clip-rule="evenodd" d="M20.0032 9.11096C23.6148 9.11096 25.4448 12.0591 26.5259 15.2738L27.4137 17.8251C27.5586 18.2673 26.9909 18.6641 26.5259 18.6641H23.4759L23.0532 17.2978C22.117 14.6104 20.6132 11.9287 17.9438 10.9139C18.6444 10.4717 19.2121 9.85934 19.5865 9.11096H20.0093H20.0032ZM23.7537 7.34773C27.2264 7.43278 29.0504 10.3413 30.1314 13.5105L30.9769 16.0221C31.1219 16.4644 30.5542 16.9009 30.0891 16.9009H28.1686L27.5103 14.9619C26.6225 12.2746 25.1187 9.59287 22.4009 8.57802C22.9626 8.22651 23.3853 7.82964 23.7598 7.34773H23.7537ZM2.79075 16.9066H0.912472C0.399117 16.9066 -0.120277 16.5097 0.0246699 16.0278L0.870196 13.5162C1.95126 10.3469 3.78122 7.43844 7.24787 7.3534C7.57401 7.83531 8.04508 8.27754 8.55844 8.58369C5.88295 9.59854 4.38517 12.2802 3.44905 14.9676L2.79075 16.9066ZM23.5665 0C25.4871 0 27.0392 1.4514 27.0392 3.25999C27.0392 4.84746 25.8192 6.16847 24.2248 6.42927C24.412 5.98704 24.5026 5.50513 24.5026 5.01755C24.5026 3.03888 23.0471 1.40605 21.1266 0.924136C21.7366 0.351512 22.5821 0 23.5665 0ZM7.4351 0C8.37122 0 9.26506 0.351512 9.87504 0.924136C7.95449 1.40605 6.49898 3.03888 6.49898 5.01755C6.49898 5.50513 6.59561 5.98704 6.78284 6.42927C5.18842 6.1628 3.96844 4.84179 3.96844 3.25999C3.9624 1.4514 5.50851 0 7.4351 0ZM15.5038 0C16.5789 0 17.521 0.442225 18.1733 1.14525C17.3277 1.49676 16.5789 2.11474 16.1078 2.86312L15.9206 3.12959H15.0267L14.8878 2.86312C14.3744 2.11474 13.6678 1.49676 12.8223 1.14525C13.4806 0.442225 14.4167 0 15.4978 0H15.5038ZM15.5038 11.4468C19.1154 11.4468 20.9454 14.395 22.0687 17.6096L22.9143 20.1609C23.0532 20.6031 22.4915 21 22.0204 21H8.9812C8.46785 21 7.90014 20.6031 8.08736 20.1609L8.93289 17.6096C10.014 14.395 11.8862 11.4468 15.4978 11.4468H15.5038ZM15.5038 4.09341C17.4244 4.09341 18.9765 5.54482 18.9765 7.3534C18.9765 9.16199 17.4304 10.6134 15.5038 10.6134C13.5772 10.6134 12.0311 9.16199 12.0311 7.3534C12.0311 5.54482 13.5772 4.09341 15.5038 4.09341ZM7.48341 18.6641H4.47576C3.9624 18.6641 3.44301 18.2673 3.58796 17.8251L4.43348 15.2738C5.55682 12.0591 7.38678 9.11096 10.9984 9.11096H11.4211C11.7473 9.85934 12.3573 10.4773 13.0639 10.9139C10.3884 11.9287 8.84229 14.6104 7.95449 17.2978L7.48341 18.6641ZM10.9984 1.76323C12.2667 1.76323 13.39 2.42657 14 3.3507C12.2667 3.96868 10.9984 5.5108 10.9984 7.35907C10.9984 7.66523 11.0467 7.97705 11.095 8.28321H10.9984C9.07783 8.28321 7.52569 6.8318 7.52569 5.02322C7.52569 3.21463 9.07179 1.76323 10.9984 1.76323ZM20.0032 1.76323C21.9238 1.76323 23.4759 3.21463 23.4759 5.02322C23.4759 6.8318 21.9298 8.28321 20.0032 8.28321H19.8643C19.961 7.97705 20.0032 7.66523 20.0032 7.35907C20.0032 5.5108 18.7349 3.96868 17.0016 3.3507C17.6116 2.42657 18.6927 1.76323 20.0032 1.76323Z" fill="#F89500"/>
</svg>
