<svg width="30" height="24" viewBox="0 0 30 24" fill="none" xmlns="http://www.w3.org/2000/svg">
<path fill-rule="evenodd" clip-rule="evenodd" d="M22.3034 24H7.29012V2.24983H7.10978C6.45459 2.24983 5.91889 1.74381 5.91889 1.12491C5.91889 0.506023 6.45459 0 7.10978 0H22.8809C23.5361 0 24.0718 0.506442 24.0718 1.12491C24.0718 1.74381 23.5356 2.24983 22.8809 2.24983H22.3034V24ZM5.17886 4.29574H1.00121C0.450857 4.29574 0 4.7212 0 5.24191C0 5.7622 0.450857 6.18808 1.00121 6.18808H5.17886C5.72966 6.18808 6.18052 5.7622 6.18052 5.24191C6.18052 4.72162 5.72966 4.29574 5.17886 4.29574ZM28.9979 4.29574H24.8211C24.2703 4.29574 23.8195 4.7212 23.8195 5.24191C23.8195 5.7622 24.2703 6.18808 24.8211 6.18808H28.9983C29.5491 6.18808 30 5.7622 30 5.24191C30 4.72162 29.5491 4.29574 28.9983 4.29574H28.9979ZM5.82828 24H0.522818V7.78965H5.82828V10.4393H2.81619V13.1667H5.82828V16.0056H2.81619V18.7329H5.82828V24ZM23.9452 24H29.5394V7.78965H23.9456V10.4393H27.1216V13.1667H23.9456V16.0056H27.1216V18.7329H23.9456V24H23.9452ZM15.6992 4.19336H14.2737V6.03451H12.5236V7.34698H14.2737V8.79582H15.6992V7.34698H17.3231V6.03451H15.6992V4.19336ZM19.7231 12.9376H16.114C15.7072 12.9376 15.3745 13.2523 15.3745 13.6366V15.7161C15.3745 16.1004 15.7072 16.4151 16.114 16.4151H19.7231C20.13 16.4151 20.4631 16.1004 20.4631 15.7161V13.6366C20.4631 13.2523 20.1304 12.9376 19.7231 12.9376ZM13.6123 12.9376H10.0033C9.59638 12.9376 9.26323 13.2523 9.26323 13.6366V15.7161C9.26323 16.1004 9.59638 16.4151 10.0033 16.4151H13.6123C14.0192 16.4151 14.3524 16.1004 14.3524 15.7161V13.6366C14.3524 13.2523 14.0192 12.9376 13.6123 12.9376ZM19.7231 18.4522H16.114C15.7072 18.4522 15.3745 18.7669 15.3745 19.1512V21.2307C15.3745 21.6151 15.7072 21.9298 16.114 21.9298H19.7231C20.13 21.9298 20.4631 21.6155 20.4631 21.2307V19.1512C20.4631 18.7669 20.1304 18.4522 19.7231 18.4522ZM13.6123 18.4522H10.0033C9.59638 18.4522 9.26323 18.7669 9.26323 19.1512V21.2307C9.26323 21.6151 9.59638 21.9298 10.0033 21.9298H13.6123C14.0192 21.9298 14.3524 21.6155 14.3524 21.2307V19.1512C14.3524 18.7669 14.0192 18.4522 13.6123 18.4522ZM14.833 2.21626C12.3215 2.21626 10.2858 4.13965 10.2858 6.512C10.2858 8.88435 12.3215 10.8073 14.833 10.8073C17.3445 10.8073 19.3806 8.88435 19.3806 6.512C19.3806 4.13965 17.3445 2.21626 14.833 2.21626Z" fill="#F89500"/>
</svg>
