<svg width="136" height="55" viewBox="0 0 136 55" fill="none" xmlns="http://www.w3.org/2000/svg">
<g clip-path="url(#clip0_519_135)">
<path d="M10.8503 34.5706C11.5865 33.3409 12.7531 30.98 13.53 28.7944C14.522 26.006 16.1093 22.3361 18.036 20.6885C18.2272 20.5252 18.4591 20.3571 18.7172 20.189H6.62872C5.65819 20.189 4.87173 20.9791 4.87173 21.9543V36.1414H10.0734L10.8479 34.5706H10.8503Z" fill="#9DD8DE"/>
<path d="M51.3899 16.1301H43.5301C43.4919 16.1301 43.456 16.1517 43.4369 16.1854L42.2919 18.3421C41.4289 19.7448 40.162 22.2762 39.2632 24.8028C38.0656 28.1701 36.7006 30.7352 35.6106 31.667C34.6257 32.5076 31.3532 33.8526 29.7611 34.4435L29.6942 34.4579C29.5986 34.4627 29.4814 34.4579 29.3763 34.4435L28.8647 34.3834L29.2663 34.0592C29.7444 33.6701 30.6552 33.0769 31.3197 32.6445C33.5309 31.2035 35.0177 30.1828 35.6034 29.0972C36.6791 27.1037 36.146 22.3771 35.7157 22.2498C33.9731 21.7334 31.2528 26.9092 30.0193 25.569C29.7874 25.3168 36.4616 18.3397 38.8544 15.9404C39.3158 15.4769 39.6194 15.1838 39.6815 15.143V4.37118C39.6815 1.95742 37.7333 0 35.3309 0H20.4001C17.9977 0 16.0495 1.95742 16.0495 4.37118V16.0245C16.0495 16.0821 16.0017 16.1301 15.9443 16.1301H4.35062C1.94822 16.1301 0 18.0876 0 20.5013V34.4963C0 36.91 1.94822 38.8675 4.35062 38.8675H12.2104C12.2487 38.8675 12.2845 38.8459 12.3037 38.8122L13.4487 36.6555C14.3116 35.2528 15.5786 32.7214 16.4774 30.1948C17.675 26.8275 19.0399 24.2624 20.13 23.3306C21.1149 22.49 24.3874 21.145 25.9794 20.5541L26.0464 20.5397C26.142 20.5349 26.2591 20.5397 26.3643 20.5541L26.8759 20.6142L26.4743 20.9384C25.9962 21.3275 25.0854 21.9207 24.4209 22.3531C22.2097 23.7941 20.7228 24.8148 20.1372 25.9004C19.0615 27.8939 19.5945 32.6205 20.0248 32.7478C21.7675 33.2642 24.4878 28.0884 25.7213 29.4286C25.9531 29.6808 19.279 36.6579 16.8862 39.0572C16.4248 39.5207 16.1212 39.8138 16.0591 39.8546V50.6264C16.0591 53.0402 18.0073 54.9976 20.4097 54.9976H35.3404C37.7428 54.9976 39.6911 53.0402 39.6911 50.6264V38.9731C39.6911 38.9155 39.7389 38.8675 39.7962 38.8675H51.3947C53.7971 38.8675 55.7453 36.91 55.7453 34.4963V20.5013C55.7453 18.0876 53.7971 16.1301 51.3947 16.1301H51.3899ZM53.025 34.4963C53.025 35.4041 52.2935 36.1391 51.3899 36.1391H37.0759C37.0185 36.1391 36.9707 36.1871 36.9707 36.2448V50.6264C36.9707 51.5343 36.2393 52.2692 35.3357 52.2692H20.4049C19.5013 52.2692 18.7698 51.5343 18.7698 50.6264V40.407L18.8272 40.3445C20.4479 38.5985 25.7978 32.8247 26.5723 31.7847C27.2655 30.8576 28.3125 29.455 26.9763 28.1148C26.0846 27.219 24.9539 27.4279 24.4256 27.6945L21.5738 29.7L21.5882 29.2653C21.624 28.2037 21.7746 27.4207 22.0352 26.938C22.3722 26.3135 23.9715 25.2376 25.5802 24.188C27.7484 22.7758 28.7093 22.1153 28.8336 21.1978C28.9795 20.1266 28.5779 19.471 28.2169 19.1107C27.3085 18.2028 26.3906 18.2557 26.1157 18.2965L25.4918 18.4118L25.3866 18.4502C24.8679 18.64 20.2686 20.35 18.722 21.671C16.9172 23.2129 15.3945 26.7579 14.4335 29.4598C13.4535 32.217 11.9164 35.1568 11.2447 36.0526L11.1801 36.1391H4.35062C3.44703 36.1391 2.71555 35.4041 2.71555 34.4963V20.5013C2.71555 19.5934 3.44703 18.8585 4.35062 18.8585H18.6646C18.722 18.8585 18.7698 18.8105 18.7698 18.7528V4.37118C18.7698 3.46332 19.5013 2.72838 20.4049 2.72838H35.3357C36.2393 2.72838 36.9707 3.46332 36.9707 4.37118V14.5906L36.9134 14.6531C35.2926 16.3991 29.9428 22.1729 29.1683 23.2129C28.4751 24.14 27.428 25.5426 28.7643 26.8827C29.6559 27.7786 30.7866 27.5697 31.3149 27.3031L34.1667 25.2976L34.1524 25.7323C34.1165 26.7939 33.9659 27.5769 33.7054 28.0596C33.3683 28.6841 31.7691 29.76 30.1603 30.8096C27.9922 32.2218 27.0312 32.8823 26.9069 33.7998C26.7611 34.871 27.1962 35.4954 27.5237 35.8869C28.4177 36.9533 30.4089 36.5258 30.4089 36.5258C30.4089 36.5258 35.4719 34.6476 37.0209 33.3266C38.8257 31.7847 40.3484 28.2397 41.3094 25.5378C42.2895 22.7806 43.8265 19.8408 44.4983 18.945L44.5628 18.8585H51.3923C52.2959 18.8585 53.0274 19.5934 53.0274 20.5013V34.4963H53.025Z" fill="white"/>
<path d="M30.6169 52.2715H35.3357C36.2393 52.2715 36.9707 51.5366 36.9707 50.6287V36.2471C36.9707 36.1894 37.0186 36.1414 37.0759 36.1414H51.3899C52.2935 36.1414 53.025 35.4065 53.025 34.4986V20.5036C53.025 20.4388 53.0131 20.3763 53.0059 20.3139C52.7501 20.2346 52.4824 20.189 52.2003 20.189H45.1294L44.9692 20.5156C44.2329 21.7453 43.0664 24.1062 42.2895 26.2918C41.2975 29.0803 40.0592 32.7285 38.1301 34.3761C36.5166 35.7547 30.5261 37.8418 30.5261 37.8418C28.432 38.5359 28.0352 36.6842 27.6026 35.9733C27.5739 35.9445 27.5452 35.918 27.5189 35.8892C27.483 35.8484 27.4472 35.8004 27.4113 35.7547C27.397 35.7451 27.385 35.7331 27.3707 35.7259H27.3898C27.0886 35.332 26.7755 34.7388 26.9022 33.8021C27.0265 32.887 27.9898 32.2242 30.1556 30.8119C31.7643 29.7648 33.3635 28.6888 33.7006 28.0619C33.9612 27.5792 34.1094 26.7962 34.1476 25.7346L34.162 25.2999L31.3102 27.3054C30.7819 27.5696 29.6512 27.7785 28.7595 26.8851C27.4257 25.5449 28.4727 24.1423 29.1635 23.2152C29.938 22.1752 35.2879 16.4014 36.9086 14.6554L36.966 14.5929V4.6521H22.0041C21.0814 4.6521 20.3308 5.40385 20.3308 6.33332V19.2835C22.181 18.3589 24.079 17.1964 25.9149 17.2012C27.3492 17.2036 27.734 18.4045 28.1213 19.0242C28.1524 19.053 28.1834 19.0794 28.2145 19.1106C28.2814 19.1755 28.346 19.2547 28.4105 19.3412C28.4201 19.346 28.4297 19.3556 28.4416 19.3604H28.4225C28.7093 19.7447 28.9484 20.3331 28.8313 21.1977C28.707 22.1128 27.7436 22.7757 25.5778 24.1879C23.9691 25.2351 22.3699 26.3111 22.0328 26.9379C21.7722 27.4207 21.624 28.2036 21.5858 29.2652L21.5714 29.6999L24.4233 27.6945C24.9515 27.4303 26.0822 27.2213 26.9739 28.1148C28.3077 29.4549 27.2607 30.8576 26.5699 31.7846C25.8958 32.6853 21.7818 37.1549 19.6447 39.4606H20.3332V52.2619C20.3571 52.2619 20.3786 52.2691 20.4025 52.2691H30.6145L30.6169 52.2715Z" fill="#9DD8DE"/>
<path d="M66.4546 24.5003C65.2139 23.8158 64.2434 22.8647 63.5382 21.6494C62.8306 20.4341 62.4792 19.0723 62.4792 17.564C62.4792 16.0557 62.8306 14.6964 63.5382 13.4811C64.2434 12.2658 65.2187 11.3147 66.4665 10.6278C67.7143 9.9409 69.108 9.59985 70.6546 9.59985C71.814 9.59985 72.8801 9.79199 73.8602 10.1811C74.8403 10.5702 75.6722 11.137 76.3534 11.8815L75.3088 12.9335C74.0897 11.6942 72.5526 11.0769 70.6976 11.0769C69.4642 11.0769 68.3454 11.3603 67.3343 11.9271C66.3255 12.494 65.5319 13.2697 64.9605 14.2544C64.3892 15.2368 64.1024 16.344 64.1024 17.564C64.1024 18.7841 64.3892 19.8913 64.9605 20.8761C65.5319 21.8584 66.3231 22.6365 67.3343 23.2033C68.343 23.7702 69.4642 24.0536 70.6976 24.0536C72.567 24.0536 74.104 23.4267 75.3088 22.1754L76.3534 23.225C75.6722 23.9719 74.8355 24.5411 73.8482 24.9374C72.861 25.3337 71.7877 25.5306 70.6283 25.5306C69.0841 25.5306 67.6928 25.1872 66.4522 24.5003H66.4546Z" fill="white"/>
<path d="M91.1217 23.9647V25.3961H80.0969V9.73193H90.787V11.1658H81.7439V16.7378H89.8069V18.1477H81.7439V23.9671H91.1193L91.1217 23.9647Z" fill="white"/>
<path d="M105.732 11.1658C106.86 12.1193 107.425 13.433 107.425 15.1046C107.425 16.7763 106.858 18.0828 105.732 19.0315C104.604 19.9778 103.045 20.4509 101.054 20.4509H96.8659V25.3961H95.2189V9.73193H101.054C103.045 9.73193 104.604 10.2099 105.732 11.1658ZM104.551 17.9795C105.366 17.2998 105.775 16.3415 105.775 15.1046C105.775 13.8677 105.366 12.8638 104.551 12.1841C103.734 11.5044 102.553 11.1658 101.009 11.1658H96.8659V18.9979H101.009C102.553 18.9979 103.734 18.6568 104.551 17.9795Z" fill="white"/>
<path d="M120.209 21.2123H111.524L109.655 25.3961H107.941L115.067 9.73193H116.692L123.818 25.3961H122.08L120.211 21.2123H120.209ZM119.606 19.8697L115.865 11.4564L112.124 19.8697H119.606Z" fill="white"/>
<path d="M128.872 11.1658H123.393V9.73193H135.998V11.1658H130.519V25.3985H128.872V11.1658Z" fill="white"/>
<path d="M64.6474 45.9022C63.5334 45.578 62.6394 45.1552 61.9629 44.6341L63.1486 41.9921C63.7964 42.4677 64.5637 42.8496 65.4554 43.1402C66.347 43.4284 67.2362 43.5749 68.1279 43.5749C69.1199 43.5749 69.8538 43.426 70.3271 43.1306C70.8004 42.8352 71.0371 42.4413 71.0371 41.9489C71.0371 41.5887 70.896 41.2884 70.6187 41.0507C70.3391 40.8129 69.9781 40.6231 69.5406 40.4766C69.1032 40.3325 68.508 40.174 67.7621 39.9987C66.6123 39.7249 65.6705 39.4511 64.9366 39.1773C64.2028 38.9011 63.5741 38.4616 63.0506 37.8563C62.5247 37.2511 62.2617 36.4417 62.2617 35.4306C62.2617 34.5491 62.4984 33.7518 62.9741 33.036C63.4474 32.3203 64.1621 31.7535 65.1183 31.3356C66.0745 30.9177 67.2434 30.7087 68.6227 30.7087C69.5861 30.7087 70.5255 30.824 71.4482 31.057C72.3686 31.2876 73.1741 31.619 73.8626 32.0537L72.7845 34.7173C71.3885 33.9247 69.9948 33.526 68.6012 33.526C67.6235 33.526 66.9016 33.6869 66.4354 34.0039C65.9693 34.321 65.7327 34.7413 65.7327 35.26C65.7327 35.7788 66.0028 36.1679 66.5406 36.4201C67.0785 36.6723 67.9032 36.9221 69.01 37.167C70.1598 37.4408 71.1016 37.7146 71.8355 37.9908C72.5693 38.2646 73.198 38.6969 73.7215 39.2902C74.2451 39.8834 74.5104 40.6856 74.5104 41.6943C74.5104 42.559 74.269 43.3515 73.7885 44.0649C73.3056 44.7806 72.5837 45.3474 71.6227 45.7653C70.6594 46.1856 69.4881 46.3921 68.1088 46.3921C66.9159 46.3921 65.7637 46.2288 64.6498 45.9046L64.6474 45.9022Z" fill="white"/>
<path d="M88.5902 43.3132V46.128H76.9056V30.9634H88.3105V33.7806H80.3766V37.0734H87.3854V39.8018H80.3766V43.3108H88.5902V43.3132Z" fill="white"/>
<path d="M105.213 30.9658V46.1305H101.721V39.9123H94.8651V46.1305H91.3726V30.9658H94.8651V36.9462H101.721V30.9658H105.213Z" fill="white"/>
<path d="M118.729 42.8809H111.72L110.384 46.1305H106.805L113.532 30.9658H116.982L123.73 46.1305H120.065L118.729 42.8809ZM117.629 40.2149L115.237 34.4099L112.844 40.2149H117.629Z" fill="white"/>
<path d="M127.679 33.8239H122.848V30.9634H136V33.8239H131.169V46.128H127.676V33.8239H127.679Z" fill="white"/>
</g>
<defs>
<clipPath id="clip0_519_135">
<rect width="136" height="55" fill="white"/>
</clipPath>
</defs>
</svg>
