<svg width="45" height="45" viewBox="0 0 45 45" fill="none" xmlns="http://www.w3.org/2000/svg">
<g clip-path="url(#clip0_1_87)">
<path d="M42.0979 33.5593C42.0979 33.5593 42.0979 33.5584 42.0987 33.5575C43.9963 30.2019 45 26.3786 45 22.5C45 21.8654 44.9728 21.2221 44.92 20.5875C44.92 20.5875 44.92 20.5866 44.92 20.5857C44.448 14.9862 41.9063 9.79541 37.764 5.96865C33.5971 2.11992 28.176 0 22.5 0C16.824 0 11.4029 2.11992 7.23691 5.96865C3.09375 9.79541 0.552832 14.9871 0.0799805 20.5857C0.0799805 20.5857 0.0799805 20.5866 0.0799805 20.5875C0.0263672 21.2221 0 21.8654 0 22.5C0 26.3795 1.00283 30.2027 2.90127 33.5584C2.90127 33.5593 2.90215 33.561 2.90303 33.5619C2.90303 33.5637 2.90479 33.5646 2.90566 33.5663C2.90566 33.5672 2.90742 33.5689 2.90742 33.5698C4.83574 36.9756 7.63242 39.8355 10.996 41.8403C14.4633 43.9066 18.4412 44.9991 22.4991 44.9991C26.557 44.9991 30.5341 43.9066 34.0022 41.8403C37.3658 39.8355 40.1625 36.9756 42.0908 33.5698C42.0908 33.5681 42.0926 33.5672 42.0935 33.5654C42.0935 33.5637 42.0952 33.5628 42.0961 33.561C42.0961 33.5602 42.097 33.5593 42.0979 33.5584V33.5593ZM5.84297 19.7807C7.15518 11.6446 14.1513 5.625 22.5 5.625C30.8487 5.625 37.8448 11.6446 39.157 19.7807H5.84297ZM22.5 1.75781C32.8711 1.75781 41.7234 9.59941 43.0646 19.7807H40.9342C40.3093 15.5303 38.2254 11.6218 35.0112 8.70381C31.5747 5.58457 27.1318 3.86719 22.4991 3.86719C17.8664 3.86719 13.4235 5.58457 9.98701 8.70381C6.77285 11.6209 4.68897 15.5294 4.06406 19.7807H1.93447C3.27656 9.59941 12.1289 1.75781 22.5 1.75781ZM1.77979 21.5385H43.2202C43.2352 21.8593 43.2422 22.181 43.2422 22.5C43.2422 25.9075 42.4028 29.2667 40.812 32.2506H26.4735C25.9884 32.2506 25.5946 32.6435 25.5946 33.1295C25.5946 33.6155 25.9884 34.0084 26.4735 34.0084H34.8346C31.6477 37.4396 27.2435 39.375 22.5 39.375C17.7565 39.375 13.3523 37.4396 10.1654 34.0084H18.5265C19.0116 34.0084 19.4054 33.6146 19.4054 33.1295C19.4054 32.6443 19.0116 32.2506 18.5265 32.2506H8.28809C8.28809 32.2506 8.28545 32.2506 8.28457 32.2506H4.18799C2.59629 29.2667 1.75781 25.9075 1.75781 22.5C1.75781 22.181 1.76484 21.8602 1.77979 21.5385ZM22.5 43.2422C15.5505 43.2422 9.07119 39.7397 5.24092 34.0084H7.85479C9.51855 36.1195 11.6455 37.8729 14.0309 39.0946C16.6702 40.4473 19.5196 41.1328 22.4991 41.1328C25.4786 41.1328 28.328 40.4473 30.9674 39.0946C33.3527 37.8729 35.4797 36.1195 37.1435 34.0075H39.7573C35.9271 39.7389 29.4478 43.2413 22.4982 43.2413L22.5 43.2422Z" fill="#00B2AE"/>
<path d="M21.7854 32.6408C21.5754 32.9616 21.593 33.3878 21.8364 33.6867C22.0588 33.9591 22.435 34.0725 22.7707 33.9697C23.1363 33.8581 23.3938 33.5126 23.3938 33.1294C23.3938 32.7621 23.1574 32.4254 22.8111 32.3024C22.4376 32.1688 22.0052 32.3103 21.7846 32.6417L21.7854 32.6408Z" fill="#00B2AE"/>
<path d="M17.6326 29.8907C17.7355 29.9302 17.8409 29.9487 17.9455 29.9487C18.2997 29.9487 18.6337 29.7334 18.7673 29.3827L18.9589 28.8808H20.3704L20.5594 29.3801C20.7308 29.8344 21.2379 30.0638 21.6923 29.8925C22.1467 29.7211 22.3752 29.2139 22.2047 28.7595L20.5857 24.4705C20.5831 24.4626 20.5796 24.4547 20.5761 24.4468C20.4249 24.0785 20.0698 23.8412 19.6717 23.8412H19.6708C19.2727 23.8412 18.9176 24.0802 18.7673 24.4485C18.7647 24.4555 18.762 24.4617 18.7594 24.4687L17.1255 28.7578C16.9523 29.2113 17.18 29.7193 17.6335 29.8916L17.6326 29.8907ZM19.706 27.1221H19.6277L19.6673 27.0184L19.706 27.1221Z" fill="#00B2AE"/>
<path d="M24.0187 29.9321C24.082 29.9426 24.1163 29.9488 24.6164 29.9488C24.8537 29.9488 25.1956 29.947 25.6948 29.9444C26.18 29.9417 26.572 29.5462 26.5685 29.0602C26.5658 28.5768 26.1729 28.1865 25.6896 28.1865H25.6843C25.4716 28.1874 25.2501 28.1883 25.0444 28.1892V24.7184C25.0444 24.2332 24.6507 23.8395 24.1655 23.8395C23.6804 23.8395 23.2866 24.2332 23.2866 24.7184V29.0655C23.2866 29.4935 23.5951 29.8591 24.017 29.9321H24.0187Z" fill="#00B2AE"/>
<path d="M28.9714 29.9487C29.4565 29.9487 29.8503 29.555 29.8503 29.0698V24.7192C29.8503 24.2341 29.4565 23.8403 28.9714 23.8403C28.4862 23.8403 28.0925 24.2341 28.0925 24.7192V29.0698C28.0925 29.555 28.4862 29.9487 28.9714 29.9487Z" fill="#00B2AE"/>
<path d="M37.2234 27.1082L37.219 29.0681C37.2182 29.5533 37.6102 29.9479 38.0962 29.9488H38.098C38.5822 29.9488 38.976 29.5568 38.9769 29.0716L38.9813 27.109L40.2179 25.2097C40.4824 24.8028 40.3673 24.2587 39.9612 23.9933C39.5543 23.7279 39.0103 23.8439 38.7448 24.25L38.1023 25.237L37.4502 24.2377C37.1848 23.8316 36.6407 23.7165 36.2338 23.9819C35.8277 24.2473 35.7126 24.7922 35.978 25.1983L37.2243 27.1064L37.2234 27.1082Z" fill="#00B2AE"/>
<path d="M12.8268 29.5813C13.2073 29.8248 13.6362 29.9479 14.1003 29.9487H14.1038C14.5011 29.9487 14.8746 29.8617 15.2156 29.6903C16.0559 29.2667 16.519 28.5636 16.519 27.7102V24.7201C16.519 24.235 16.1253 23.8412 15.6401 23.8412C15.155 23.8412 14.7612 24.235 14.7612 24.7201V27.7102C14.7612 27.806 14.7612 27.951 14.4255 28.1206C14.3315 28.1681 14.226 28.1909 14.1047 28.1909H14.1038C13.9755 28.1909 13.8709 28.1619 13.7733 28.0995C13.4965 27.9229 13.4965 27.8156 13.4965 27.7128V24.7192C13.4965 24.2341 13.1027 23.8403 12.6176 23.8403C12.1324 23.8403 11.7387 24.2341 11.7387 24.7192V27.7128C11.7387 28.4906 12.1052 29.1199 12.8268 29.5813Z" fill="#00B2AE"/>
<path d="M32.1073 25.5981H32.4246V29.0698C32.4246 29.555 32.8184 29.9487 33.3035 29.9487C33.7887 29.9487 34.1824 29.555 34.1824 29.0698V25.5981H34.5094C34.9945 25.5981 35.3883 25.2044 35.3883 24.7192C35.3883 24.2341 34.9945 23.8403 34.5094 23.8403H32.1073C31.6222 23.8403 31.2284 24.2341 31.2284 24.7192C31.2284 25.2044 31.6222 25.5981 32.1073 25.5981Z" fill="#00B2AE"/>
<path d="M7.69482 29.9487C8.22656 29.9487 8.72753 29.8116 9.16347 29.5717L9.26542 29.6736C9.43681 29.845 9.66181 29.9312 9.88681 29.9312C10.1118 29.9312 10.3368 29.845 10.5082 29.6736C10.851 29.3309 10.851 28.7736 10.5082 28.4309L10.3957 28.3184C10.6207 27.893 10.7481 27.4087 10.7481 26.8945C10.7481 25.2105 9.37792 23.8403 7.69394 23.8403C6.00996 23.8403 4.63974 25.2105 4.63974 26.8945C4.63974 28.5785 6.00996 29.9487 7.69394 29.9487H7.69482ZM7.69482 25.5981C8.40937 25.5981 8.99121 26.18 8.99121 26.8945C8.99121 26.9077 8.99121 26.9209 8.99121 26.9341C8.64931 26.7003 8.17822 26.7346 7.87412 27.0387C7.56122 27.3516 7.5331 27.8429 7.79238 28.1874C7.76074 28.19 7.72822 28.1909 7.6957 28.1909C6.98115 28.1909 6.39931 27.6091 6.39931 26.8945C6.39931 26.18 6.98115 25.5981 7.6957 25.5981H7.69482Z" fill="#00B2AE"/>
<path d="M26.1044 10.372L24.2745 9.87366L23.2356 8.28196C23.073 8.03323 22.7962 7.88293 22.4991 7.88293C22.202 7.88293 21.9252 8.03323 21.7626 8.28196L20.7237 9.87366L18.8938 10.372C18.6082 10.4502 18.3806 10.6664 18.2892 10.9486C18.1978 11.2307 18.254 11.5392 18.4395 11.7703L19.6286 13.2531L19.5354 15.1541C19.5214 15.4503 19.6567 15.7342 19.8967 15.9082C20.1366 16.0822 20.4486 16.1236 20.7255 16.0181L22.4974 15.3431L24.2692 16.0181C24.3703 16.0568 24.4767 16.0752 24.5821 16.0752C24.7649 16.0752 24.946 16.0181 25.0989 15.9073C25.3389 15.7333 25.4751 15.4494 25.4602 15.1532L25.367 13.2522L26.5561 11.7695C26.7416 11.5383 26.7978 11.2298 26.7064 10.9477C26.615 10.6656 26.3874 10.4493 26.1018 10.372H26.1044ZM23.7902 12.4128C23.6558 12.5798 23.5872 12.7907 23.5978 13.0052L23.6408 13.8964L22.812 13.5809C22.7109 13.5422 22.6055 13.5238 22.4991 13.5238C22.3928 13.5238 22.2873 13.5431 22.1862 13.5809L21.3574 13.8964L21.4005 13.0052C21.411 12.7907 21.3425 12.5798 21.208 12.4128L20.649 11.7158L21.5086 11.4821C21.716 11.4258 21.8962 11.2948 22.014 11.1147L22.4991 10.3711L22.9843 11.1147C23.102 11.2948 23.2813 11.4258 23.4896 11.4821L24.3492 11.7158L23.7902 12.4128Z" fill="#00B2AE"/>
<path d="M34.0594 12.4602L32.785 12.113L32.0616 11.0047C31.899 10.756 31.6222 10.6057 31.3251 10.6057C31.028 10.6057 30.7512 10.756 30.5886 11.0047L29.8652 12.113L28.5908 12.4602C28.3052 12.5384 28.0775 12.7546 27.9861 13.0359C27.8947 13.318 27.951 13.6265 28.1364 13.8577L28.9644 14.8904L28.8993 16.2149C28.8853 16.5111 29.0206 16.795 29.2605 16.969C29.5005 17.143 29.8125 17.1843 30.0894 17.0789L31.3233 16.6086L32.5573 17.0789C32.6584 17.1175 32.7647 17.136 32.8702 17.136C33.053 17.136 33.2341 17.0789 33.387 16.9681C33.627 16.7941 33.7632 16.5102 33.7482 16.214L33.6832 14.8895L34.512 13.8568C34.6975 13.6256 34.7537 13.3163 34.6623 13.035C34.57 12.7529 34.3433 12.5367 34.0576 12.4593L34.0594 12.4602ZM32.1056 14.051C31.9711 14.218 31.9025 14.429 31.9131 14.6434L31.928 14.9572L31.638 14.8464C31.4358 14.77 31.2135 14.77 31.0122 14.8464L30.7222 14.9572L30.7371 14.6434C30.7477 14.429 30.6791 14.218 30.5446 14.051L30.346 13.8041L30.6492 13.7214C30.8566 13.6652 31.0368 13.5342 31.1546 13.3541L31.3242 13.0939L31.4938 13.3541C31.6116 13.5342 31.7909 13.6652 31.9992 13.7214L32.3024 13.8041L32.1038 14.051H32.1056Z" fill="#00B2AE"/>
<path d="M16.4074 12.4602L15.133 12.113L14.4097 11.0047C14.2471 10.756 13.9702 10.6057 13.6732 10.6057C13.3761 10.6057 13.0992 10.756 12.9366 11.0047L12.2133 12.113L10.9389 12.4602C10.6532 12.5384 10.4256 12.7546 10.3342 13.0359C10.2428 13.318 10.299 13.6265 10.4845 13.8577L11.3133 14.8904L11.2482 16.2149C11.2333 16.5111 11.3695 16.795 11.6095 16.969C11.7615 17.0797 11.9426 17.1369 12.1263 17.1369C12.2317 17.1369 12.3372 17.1175 12.4392 17.0797L13.6732 16.6095L14.9071 17.0797C15.1849 17.1852 15.496 17.1439 15.7359 16.9699C15.9759 16.7958 16.1121 16.512 16.0972 16.2158L16.0321 14.8913L16.8609 13.8585C17.0464 13.6274 17.1026 13.318 17.0112 13.0368C16.9198 12.7546 16.6922 12.5384 16.4065 12.4611L16.4074 12.4602ZM14.4536 14.051C14.3191 14.218 14.2506 14.429 14.2611 14.6434L14.277 14.9572L13.9869 14.8464C13.8858 14.8078 13.7804 14.7893 13.674 14.7893C13.5677 14.7893 13.4622 14.8086 13.3611 14.8464L13.0711 14.9572L13.0869 14.6434C13.0975 14.429 13.0289 14.218 12.8944 14.051L12.6958 13.8041L12.999 13.7214C13.2065 13.6652 13.3866 13.5342 13.5044 13.3541L13.674 13.0939L13.8437 13.3541C13.9614 13.5342 14.1407 13.6652 14.349 13.7214L14.6523 13.8041L14.4545 14.051H14.4536Z" fill="#00B2AE"/>
</g>
<defs>
<clipPath id="clip0_1_87">
<rect width="45" height="45" fill="white"/>
</clipPath>
</defs>
</svg>
