<svg width="46" height="46" viewBox="0 0 46 46" fill="none" xmlns="http://www.w3.org/2000/svg">
<g clip-path="url(#clip0_1_40)">
<path d="M33.0625 13.6562C29.6988 13.6562 26.6491 15.0226 24.4375 17.2292V10.2788C24.4375 9.51481 24.2003 8.78313 23.7504 8.16572L18.9779 1.60281C18.5754 1.04938 17.9256 0.71875 17.2407 0.71875C16.1453 0.71875 15.249 1.54603 15.1196 2.60763C15.1139 2.60547 15.1096 2.60259 15.1038 2.60116L9.83825 0.84525C9.58741 0.761156 9.32578 0.71875 9.06056 0.71875H8.92975C7.57275 0.71875 6.46875 1.82275 6.46875 3.18047C6.46875 4.15222 7.04231 5.03484 7.92997 5.42944L12.6026 7.50663C12.977 7.67194 13.294 7.94003 13.5204 8.28L15.4503 11.1744C15.6874 11.5295 15.8125 11.9428 15.8125 12.3704V14.1572L14.8947 12.7801C14.3599 11.9787 13.4658 11.5 12.5027 11.5H5.39062C3.40903 11.5 1.79688 13.1122 1.79688 15.0938C1.79688 15.1088 1.79687 15.1239 1.79759 15.139C1.17803 15.2986 0.71875 15.8621 0.71875 16.5312V23.8057C0.71875 24.3218 0.833031 24.8422 1.04938 25.3122L4.67906 33.1761C4.98166 33.8308 5.36259 34.4483 5.81181 35.0089L6.26822 35.5796C7.17384 36.7116 7.728 38.0938 7.86816 39.5312H6.46875V45.2812H22.2812V39.5312H20.8438V39.0137C20.8438 38.0212 21.0378 37.053 21.4187 36.138L22.8843 32.6212C25.075 35.9159 28.8176 38.0938 33.0625 38.0938C39.8001 38.0938 45.2812 32.6126 45.2812 25.875C45.2812 19.1374 39.8001 13.6562 33.0625 13.6562ZM20.8438 43.8438H7.90625V40.9688H20.8438V43.8438ZM20.0919 35.5853C19.637 36.6764 19.4062 37.8307 19.4062 39.0137V39.5312H9.31284C9.16837 37.7674 8.49922 36.0676 7.39019 34.6818L6.93378 34.1112C6.55716 33.6404 6.23731 33.1229 5.98431 32.5737L2.35463 24.7099C2.22525 24.4282 2.15625 24.1155 2.15625 23.8057V16.5312C3.74181 16.5312 5.03125 17.8207 5.03125 19.4062V22.2812C5.03125 22.9562 5.35325 23.6016 5.89375 24.0055L7.33053 25.0837C8.01119 25.594 8.85284 25.875 9.70312 25.875C11.8824 25.875 13.6562 24.1011 13.6562 21.9219V19.0469C13.6562 16.8676 11.8824 15.0938 9.70312 15.0938H3.23438C3.23438 13.9049 4.20181 12.9375 5.39062 12.9375H12.5027C12.9842 12.9375 13.4313 13.1768 13.6987 13.5779L15.5703 16.3861C15.7291 16.624 15.8125 16.9 15.8125 17.1839V20.8438H17.25V17.1839V12.3704C17.25 11.6581 17.0416 10.9688 16.6462 10.3773L14.7164 7.48291C14.3383 6.91581 13.8086 6.46947 13.1855 6.19275L8.51359 4.11556C8.14488 3.95169 7.90625 3.58441 7.90625 3.18047C7.90625 2.61553 8.36553 2.15625 8.93047 2.15625H9.06128C9.17125 2.15625 9.28122 2.1735 9.38472 2.208L14.6496 3.96319C15.1009 4.11341 15.4948 4.41384 15.7593 4.80916L18.0895 8.30444L19.044 9.73619C19.2812 10.092 19.4062 10.5053 19.4062 10.9329V20.8438H20.8438V10.9329C20.8438 10.2206 20.6353 9.53134 20.24 8.93981L16.9582 4.01494C16.956 4.01134 16.9524 4.00847 16.9496 4.00488L16.6506 3.55637C16.5729 3.43778 16.5312 3.30194 16.5312 3.16106V2.86566C16.5312 2.47466 16.8497 2.15625 17.2407 2.15625C17.4671 2.15625 17.682 2.2655 17.8157 2.44806L22.5882 9.01025C22.8577 9.38184 23 9.81956 23 10.2788V18.9592C21.643 20.9278 20.8438 23.3091 20.8438 25.875C20.8438 27.7143 21.2642 29.4529 21.9945 31.0191L20.0919 35.5853ZM5.36834 16.5312H9.70312C11.0903 16.5312 12.2188 17.6597 12.2188 19.0469V21.9219C12.2188 23.3091 11.0903 24.4375 9.70312 24.4375C9.16191 24.4375 8.62644 24.2585 8.19303 23.9344L6.75553 22.8562C6.57584 22.7211 6.46875 22.5062 6.46875 22.2812V19.4062C6.46875 18.303 6.05187 17.2946 5.36834 16.5312ZM33.0625 36.6562C27.1177 36.6562 22.2812 31.8198 22.2812 25.875C22.2812 19.9302 27.1177 15.0938 33.0625 15.0938C39.0073 15.0938 43.8438 19.9302 43.8438 25.875C43.8438 31.8198 39.0073 36.6562 33.0625 36.6562Z" fill="#00B2AE" stroke="#00B2AE" stroke-width="0.5"/>
<path d="M37.5856 21.0543L30.1875 28.4524L28.5394 26.8043L27.5231 27.8206L30.1875 30.485L38.6019 22.0706L37.5856 21.0543Z" fill="#00B2AE" stroke="#00B2AE" stroke-width="0.5"/>
<path d="M33.0625 33.7813C28.7033 33.7813 25.1562 30.2342 25.1562 25.875C25.1562 24.0099 25.8211 22.1986 27.0279 20.7733L25.9318 19.844C24.5051 21.5287 23.7188 23.6706 23.7188 25.875C23.7188 31.027 27.9105 35.2188 33.0625 35.2188C35.2669 35.2188 37.4088 34.4325 39.0935 33.0057L38.1642 31.9097C36.7389 33.1164 34.9277 33.7813 33.0625 33.7813Z" fill="#00B2AE" stroke="#00B2AE" stroke-width="0.5"/>
<path d="M33.0625 16.5312C30.8581 16.5312 28.7162 17.3176 27.0315 18.7443L27.9608 19.8404C29.3861 18.6336 31.1973 17.9687 33.0625 17.9687C37.4217 17.9687 40.9687 21.5158 40.9687 25.875C40.9687 27.7402 40.3039 29.5514 39.0971 30.9767L40.1932 31.906C41.6199 30.2213 42.4062 28.0794 42.4062 25.875C42.4062 20.723 38.2145 16.5312 33.0625 16.5312Z" fill="#00B2AE" stroke="#00B2AE" stroke-width="0.5"/>
</g>
<defs>
<clipPath id="clip0_1_40">
<rect width="46" height="46" fill="white"/>
</clipPath>
</defs>
</svg>
