<svg width="51" height="51" viewBox="0 0 51 51" fill="none" xmlns="http://www.w3.org/2000/svg">
<path d="M45.1191 40.2501C44.7781 39.9918 44.3811 39.8175 43.9602 39.7414C43.5393 39.6652 43.1064 39.6894 42.6966 39.8118L31.7634 43.0312H25.7072L21.4041 40.6406H29.4844C29.6957 40.6406 29.8984 40.5566 30.0479 40.4072C30.1973 40.2577 30.2812 40.055 30.2812 39.8437V37.4531C30.2797 37.2418 30.1969 37.0392 30.0502 36.8873L28.4564 35.2935C28.3446 35.184 28.2034 35.1092 28.05 35.0784L16.0969 32.6878C16.0442 32.6785 15.9909 32.6732 15.9375 32.6718H11.1562C11.0552 32.6703 10.9549 32.6893 10.8614 32.7276L7.96875 33.8831V32.6718C7.9693 32.4822 7.90219 32.2986 7.7795 32.154C7.65681 32.0094 7.48657 31.9133 7.29937 31.8829L2.51813 31.086C2.4037 31.0699 2.28716 31.0778 2.17599 31.1094C2.06483 31.1409 1.9615 31.1954 1.87266 31.2693C1.78563 31.3445 1.71572 31.4375 1.66761 31.5419C1.6195 31.6464 1.59432 31.7599 1.59375 31.875V47.8125C1.59375 48.0238 1.67771 48.2265 1.82715 48.3759C1.97659 48.5254 2.17928 48.6093 2.39062 48.6093C2.43328 48.6106 2.47597 48.608 2.51813 48.6014L7.29937 47.8045C7.48657 47.7741 7.65681 47.678 7.7795 47.5334C7.90219 47.3888 7.9693 47.2052 7.96875 47.0156V46.2187H10.2319L19.6669 49.3664C19.7497 49.3912 19.8355 49.4047 19.9219 49.4062H31.875C31.9648 49.4065 32.054 49.3903 32.138 49.3584L44.3859 45.0393C44.9217 44.85 45.3856 44.4994 45.7138 44.0356C46.042 43.5718 46.2184 43.0177 46.2188 42.4495C46.2212 42.0223 46.1229 41.6005 45.9318 41.2183C45.7408 40.8362 45.4623 40.5045 45.1191 40.2501ZM6.375 46.3382L3.1875 46.8721V32.8153L6.375 33.3492V46.3382ZM43.86 43.5332L31.7395 47.8125H20.0494L10.6144 44.6648C10.5316 44.6399 10.4458 44.6265 10.3594 44.625H7.96875V35.6043L11.3077 34.2656H15.8578L27.5002 36.5925L28.6875 37.7798V39.0468H18.3281C18.1524 39.0474 17.9817 39.106 17.8427 39.2136C17.7038 39.3212 17.6043 39.4717 17.5597 39.6417C17.5151 39.8117 17.5281 39.9917 17.5964 40.1536C17.6648 40.3155 17.7847 40.4503 17.9377 40.537L25.1095 44.5214C25.2279 44.5907 25.3628 44.6265 25.5 44.625H31.875C31.9506 44.6267 32.026 44.6159 32.0981 44.5931L43.1508 41.3418C43.3219 41.2898 43.503 41.2793 43.6789 41.3112C43.8549 41.343 44.0208 41.4164 44.1628 41.5251C44.3297 41.6499 44.4596 41.8176 44.5388 42.0103C44.6179 42.2031 44.6433 42.4137 44.6122 42.6198C44.5811 42.8258 44.4948 43.0196 44.3623 43.1804C44.2299 43.3413 44.0563 43.4632 43.86 43.5332Z" fill="#00B2AE" stroke="#20BCB8" stroke-width="0.5"/>
<path d="M25.5 31.875C32.53 31.875 38.25 24.3676 38.25 15.1406V5.57813C38.25 5.40262 38.192 5.23202 38.0851 5.09283C37.9782 4.95363 37.8283 4.85363 37.6587 4.80835L25.7056 1.62085C25.5709 1.58488 25.4291 1.58488 25.2944 1.62085L13.3413 4.80835C13.1717 4.85363 13.0218 4.95363 12.9149 5.09283C12.808 5.23202 12.75 5.40262 12.75 5.57813V15.1406C12.75 24.3676 18.47 31.875 25.5 31.875ZM14.3438 6.19093L25.5 3.2154L36.6562 6.19093V15.1406C36.6562 23.4895 31.6519 30.2813 25.5 30.2813C19.3481 30.2813 14.3438 23.4895 14.3438 15.1406V6.19093Z" fill="#00B2AE" stroke="#20BCB8" stroke-width="0.5"/>
<path d="M22.3125 19.9219V22.3125C22.3125 22.7352 22.4804 23.1406 22.7793 23.4395C23.0782 23.7383 23.4836 23.9062 23.9062 23.9062H27.0938C27.5164 23.9062 27.9218 23.7383 28.2207 23.4395C28.5196 23.1406 28.6875 22.7352 28.6875 22.3125V19.9219H31.0781C31.5008 19.9219 31.9062 19.754 32.2051 19.4551C32.504 19.1562 32.6719 18.7508 32.6719 18.3281V15.1406C32.6719 14.7179 32.504 14.3126 32.2051 14.0137C31.9062 13.7148 31.5008 13.5469 31.0781 13.5469H28.6875V11.1562C28.6875 10.7336 28.5196 10.3282 28.2207 10.0293C27.9218 9.73041 27.5164 9.5625 27.0938 9.5625H23.9062C23.4836 9.5625 23.0782 9.73041 22.7793 10.0293C22.4804 10.3282 22.3125 10.7336 22.3125 11.1562V13.5469H19.9219C19.4992 13.5469 19.0938 13.7148 18.7949 14.0137C18.496 14.3126 18.3281 14.7179 18.3281 15.1406V18.3281C18.3281 18.7508 18.496 19.1562 18.7949 19.4551C19.0938 19.754 19.4992 19.9219 19.9219 19.9219H22.3125ZM19.9219 15.1406H22.3125C22.7352 15.1406 23.1406 14.9727 23.4395 14.6738C23.7383 14.3749 23.9062 13.9696 23.9062 13.5469V11.1562H27.0938V13.5469C27.0938 13.9696 27.2617 14.3749 27.5605 14.6738C27.8594 14.9727 28.2648 15.1406 28.6875 15.1406H31.0781V18.3281H28.6875C28.2648 18.3281 27.8594 18.496 27.5605 18.7949C27.2617 19.0938 27.0938 19.4992 27.0938 19.9219V22.3125H23.9062V19.9219C23.9062 19.4992 23.7383 19.0938 23.4395 18.7949C23.1406 18.496 22.7352 18.3281 22.3125 18.3281H19.9219V15.1406Z" fill="#00B2AE" stroke="#20BCB8" stroke-width="0.5"/>
<path d="M41.4375 6.375H43.0312V4.78125H44.625V3.1875H43.0312V1.59375H41.4375V3.1875H39.8438V4.78125H41.4375V6.375Z" fill="#00B2AE" stroke="#20BCB8" stroke-width="0.5"/>
<path d="M49.4062 7.96875H47.8125V6.375H46.2188V7.96875H44.625V9.5625H46.2188V11.1562H47.8125V9.5625H49.4062V7.96875Z" fill="#00B2AE" stroke="#20BCB8" stroke-width="0.5"/>
<path d="M38.25 26.2969V27.8906H36.6562V29.4844H38.25V31.0781H39.8438V29.4844H41.4375V27.8906H39.8438V26.2969H38.25Z" fill="#00B2AE" stroke="#20BCB8" stroke-width="0.5"/>
<path d="M44.625 21.5156H43.0312V23.1094H41.4375V24.7031H43.0312V26.2969H44.625V24.7031H46.2188V23.1094H44.625V21.5156Z" fill="#00B2AE" stroke="#20BCB8" stroke-width="0.5"/>
<path d="M7.96875 6.375H9.5625V4.78125H11.1562V3.1875H9.5625V1.59375H7.96875V3.1875H6.375V4.78125H7.96875V6.375Z" fill="#00B2AE" stroke="#20BCB8" stroke-width="0.5"/>
<path d="M3.1875 11.1562H4.78125V9.5625H6.375V7.96875H4.78125V6.375H3.1875V7.96875H1.59375V9.5625H3.1875V11.1562Z" fill="#00B2AE" stroke="#20BCB8" stroke-width="0.5"/>
<path d="M11.1562 26.2969V27.8906H9.5625V29.4844H11.1562V31.0781H12.75V29.4844H14.3438V27.8906H12.75V26.2969H11.1562Z" fill="#00B2AE" stroke="#20BCB8" stroke-width="0.5"/>
<path d="M7.96875 26.2969V24.7031H9.5625V23.1094H7.96875V21.5156H6.375V23.1094H4.78125V24.7031H6.375V26.2969H7.96875Z" fill="#00B2AE" stroke="#20BCB8" stroke-width="0.5"/>
</svg>
