<svg width="57" height="57" viewBox="0 0 57 57" fill="none" xmlns="http://www.w3.org/2000/svg">
<path d="M8.48587 34.6329C6.23838 33.4323 4.30943 31.7133 2.85894 29.6184C1.40846 27.5235 0.478215 25.1131 0.145341 22.5869C-0.187533 20.0607 0.0865495 17.4915 0.944866 15.0924C1.80318 12.6932 3.22101 10.5333 5.0808 8.79152C6.94058 7.04976 9.18876 5.77641 11.6389 5.07702C14.0891 4.37763 16.6707 4.27236 19.1697 4.76993C21.6687 5.2675 24.0131 6.35357 26.0085 7.93811C28.0039 9.52266 29.5929 11.56 30.6437 13.8813L29.021 14.6152C28.0872 12.5514 26.6749 10.74 24.9012 9.33117C23.1275 7.92231 21.0435 6.95658 18.822 6.51406C16.6005 6.07155 14.3055 6.16499 12.1273 6.78665C9.94913 7.40831 7.95052 8.54028 6.29723 10.0887C4.64393 11.6371 3.38358 13.5573 2.62068 15.6901C1.85777 17.8229 1.61431 20.1069 1.91047 22.3526C2.20663 24.5983 3.03387 26.7411 4.32362 28.6032C5.61336 30.4653 7.32843 31.9932 9.32662 33.06L8.48587 34.6329Z" fill="white"/>
<path d="M15.1406 7.125H16.9219V9.79688H15.1406V7.125Z" fill="white"/>
<path d="M2.67188 19.5938H5.34375V21.375H2.67188V19.5938Z" fill="white"/>
<path d="M13.0984 24.6765L11.8391 23.4172L15.1406 20.1157V11.5781H16.9219V20.4844C16.9218 20.7206 16.828 20.9471 16.6609 21.114L13.0984 24.6765Z" fill="white"/>
<path d="M16.0312 36.5156C14.6144 36.5142 13.2561 35.9508 12.2542 34.9489C11.2524 33.9471 10.6889 32.5887 10.6875 31.1719V30.2812C10.6875 28.864 11.2505 27.5048 12.2526 26.5026C13.2548 25.5005 14.614 24.9375 16.0312 24.9375C17.4485 24.9375 18.8077 25.5005 19.8099 26.5026C20.812 27.5048 21.375 28.864 21.375 30.2812V31.1719C21.3736 32.5887 20.8101 33.9471 19.8083 34.9489C18.8064 35.9508 17.4481 36.5142 16.0312 36.5156ZM16.0312 26.7188C15.0864 26.7188 14.1803 27.0941 13.5122 27.7622C12.8441 28.4303 12.4688 29.3364 12.4688 30.2812V31.1719C12.4688 32.1167 12.8441 33.0228 13.5122 33.6909C14.1803 34.359 15.0864 34.7344 16.0312 34.7344C16.9761 34.7344 17.8822 34.359 18.5503 33.6909C19.2184 33.0228 19.5938 32.1167 19.5938 31.1719V30.2812C19.5938 29.3364 19.2184 28.4303 18.5503 27.7622C17.8822 27.0941 16.9761 26.7188 16.0312 26.7188Z" fill="white"/>
<path d="M25.8281 50.7656C25.6195 50.7657 25.4175 50.6926 25.2572 50.559L21.375 47.3234V50.7656H19.5938V45.4219C19.5937 45.2525 19.6419 45.0866 19.7328 44.9436C19.8237 44.8007 19.9534 44.6866 20.1069 44.6148C20.2603 44.543 20.431 44.5164 20.599 44.5382C20.767 44.56 20.9253 44.6293 21.0553 44.7379L25.9029 48.7778L30.9368 45.6312C31.1185 45.5175 31.2635 45.3537 31.3542 45.1595C31.445 44.9652 31.4777 44.7489 31.4483 44.5366C31.4189 44.3242 31.3288 44.1249 31.1887 43.9626C31.0487 43.8003 30.8647 43.682 30.6589 43.6219C30.5121 43.5778 30.3576 43.5651 30.2055 43.5846C30.0535 43.6041 29.9072 43.6553 29.7763 43.735L27.1774 45.2945C26.9971 45.4029 26.7842 45.4439 26.5765 45.4103C26.3689 45.3767 26.1798 45.2707 26.0428 45.111L22.3021 40.7425C21.8839 40.2539 21.3646 39.8619 20.7802 39.5934C20.1958 39.325 19.56 39.1865 18.9169 39.1875H10.6875C9.97887 39.1875 9.29927 39.469 8.7982 39.9701C8.29713 40.4712 8.01563 41.1508 8.01563 41.8594V50.7656H6.23438V41.8594C6.23579 40.6788 6.70541 39.5469 7.54023 38.7121C8.37504 37.8773 9.50689 37.4077 10.6875 37.4063H18.9169C19.8164 37.4056 20.7054 37.5999 21.5227 37.9756C22.3401 38.3514 23.0663 38.8997 23.6514 39.5829L26.9058 43.3806L28.8563 42.2085C29.51 41.8237 30.2887 41.711 31.0247 41.8947C31.7607 42.0784 32.3952 42.5437 32.7915 43.1906C33.1878 43.8375 33.3142 44.6141 33.1435 45.3532C32.9729 46.0923 32.5188 46.7349 31.879 47.1426L26.3002 50.6303C26.1586 50.7187 25.995 50.7656 25.8281 50.7656Z" fill="white"/>
<path d="M10.6875 45.4219H12.4688V50.7656H10.6875V45.4219Z" fill="white"/>
<path d="M56.1094 46.3125H35.625V44.5312H55.2188V24.9375H24.9375V37.4062H23.1562V24.0469C23.1562 23.8107 23.2501 23.5841 23.4171 23.4171C23.5841 23.2501 23.8107 23.1562 24.0469 23.1562H56.1094C56.3456 23.1562 56.5721 23.2501 56.7391 23.4171C56.9062 23.5841 57 23.8107 57 24.0469V45.4219C57 45.6581 56.9062 45.8846 56.7391 46.0516C56.5721 46.2187 56.3456 46.3125 56.1094 46.3125Z" fill="white"/>
<path d="M56.1094 24.9375H24.0469C23.8107 24.9375 23.5841 24.8437 23.4171 24.6766C23.2501 24.5096 23.1562 24.2831 23.1562 24.0469V18.7031C23.1562 18.4669 23.2501 18.2404 23.4171 18.0734C23.5841 17.9063 23.8107 17.8125 24.0469 17.8125H56.1094C56.3456 17.8125 56.5721 17.9063 56.7391 18.0734C56.9062 18.2404 57 18.4669 57 18.7031V24.0469C57 24.2831 56.9062 24.5096 56.7391 24.6766C56.5721 24.8437 56.3456 24.9375 56.1094 24.9375ZM24.9375 23.1562H55.2188V19.5938H24.9375V23.1562Z" fill="white"/>
<path d="M39.1875 16.0312H40.9688V21.375H39.1875V16.0312Z" fill="white"/>
<path d="M33.8438 16.0312H35.625V21.375H33.8438V16.0312Z" fill="white"/>
<path d="M28.5 16.0312H30.2812V21.375H28.5V16.0312Z" fill="white"/>
<path d="M44.5312 16.0312H46.3125V21.375H44.5312V16.0312Z" fill="white"/>
<path d="M49.875 16.0312H51.6562V21.375H49.875V16.0312Z" fill="white"/>
<path d="M33.8438 33.8438H28.5C28.2638 33.8438 28.0373 33.7499 27.8702 33.5829C27.7032 33.4159 27.6094 33.1893 27.6094 32.9531V27.6094C27.6094 27.3732 27.7032 27.1466 27.8702 26.9796C28.0373 26.8126 28.2638 26.7188 28.5 26.7188H33.8438C34.08 26.7188 34.3065 26.8126 34.4735 26.9796C34.6405 27.1466 34.7344 27.3732 34.7344 27.6094V32.9531C34.7344 33.1893 34.6405 33.4159 34.4735 33.5829C34.3065 33.7499 34.08 33.8438 33.8438 33.8438ZM29.3906 32.0625H32.9531V28.5H29.3906V32.0625Z" fill="white"/>
<path d="M42.75 33.8438H37.4062C37.17 33.8438 36.9435 33.7499 36.7765 33.5829C36.6095 33.4159 36.5156 33.1893 36.5156 32.9531V27.6094C36.5156 27.3732 36.6095 27.1466 36.7765 26.9796C36.9435 26.8126 37.17 26.7188 37.4062 26.7188H42.75C42.9862 26.7188 43.2127 26.8126 43.3798 26.9796C43.5468 27.1466 43.6406 27.3732 43.6406 27.6094V32.9531C43.6406 33.1893 43.5468 33.4159 43.3798 33.5829C43.2127 33.7499 42.9862 33.8438 42.75 33.8438ZM38.2969 32.0625H41.8594V28.5H38.2969V32.0625Z" fill="white"/>
<path d="M51.6562 33.8438H46.3125C46.0763 33.8438 45.8498 33.7499 45.6827 33.5829C45.5157 33.4159 45.4219 33.1893 45.4219 32.9531V27.6094C45.4219 27.3732 45.5157 27.1466 45.6827 26.9796C45.8498 26.8126 46.0763 26.7188 46.3125 26.7188H51.6562C51.8925 26.7188 52.119 26.8126 52.286 26.9796C52.453 27.1466 52.5469 27.3732 52.5469 27.6094V32.9531C52.5469 33.1893 52.453 33.4159 52.286 33.5829C52.119 33.7499 51.8925 33.8438 51.6562 33.8438ZM47.2031 32.0625H50.7656V28.5H47.2031V32.0625Z" fill="white"/>
<path d="M33.8438 42.75H28.5C28.2638 42.75 28.0373 42.6562 27.8702 42.4891C27.7032 42.3221 27.6094 42.0956 27.6094 41.8594V36.5156C27.6094 36.2794 27.7032 36.0529 27.8702 35.8859C28.0373 35.7188 28.2638 35.625 28.5 35.625H33.8438C34.08 35.625 34.3065 35.7188 34.4735 35.8859C34.6405 36.0529 34.7344 36.2794 34.7344 36.5156V41.8594C34.7344 42.0956 34.6405 42.3221 34.4735 42.4891C34.3065 42.6562 34.08 42.75 33.8438 42.75ZM29.3906 40.9688H32.9531V37.4062H29.3906V40.9688Z" fill="white"/>
<path d="M42.75 42.75H37.4062C37.17 42.75 36.9435 42.6562 36.7765 42.4891C36.6095 42.3221 36.5156 42.0956 36.5156 41.8594V36.5156C36.5156 36.2794 36.6095 36.0529 36.7765 35.8859C36.9435 35.7188 37.17 35.625 37.4062 35.625H42.75C42.9862 35.625 43.2127 35.7188 43.3798 35.8859C43.5468 36.0529 43.6406 36.2794 43.6406 36.5156V41.8594C43.6406 42.0956 43.5468 42.3221 43.3798 42.4891C43.2127 42.6562 42.9862 42.75 42.75 42.75ZM38.2969 40.9688H41.8594V37.4062H38.2969V40.9688Z" fill="white"/>
<path d="M51.6562 42.75H46.3125C46.0763 42.75 45.8498 42.6562 45.6827 42.4891C45.5157 42.3221 45.4219 42.0956 45.4219 41.8594V36.5156C45.4219 36.2794 45.5157 36.0529 45.6827 35.8859C45.8498 35.7188 46.0763 35.625 46.3125 35.625H51.6562C51.8925 35.625 52.119 35.7188 52.286 35.8859C52.453 36.0529 52.5469 36.2794 52.5469 36.5156V41.8594C52.5469 42.0956 52.453 42.3221 52.286 42.4891C52.119 42.6562 51.8925 42.75 51.6562 42.75ZM47.2031 40.9688H50.7656V37.4062H47.2031V40.9688Z" fill="white"/>
</svg>
