<svg width="51" height="51" viewBox="0 0 51 51" fill="none" xmlns="http://www.w3.org/2000/svg">
<path d="M48.5695 20.7984L47.4539 20.0494C46.6354 19.5028 45.6435 19.2785 44.6695 19.4198C43.6954 19.561 42.8081 20.0578 42.1786 20.8144L37.4531 26.4881V8.76562C37.4531 7.92025 37.1173 7.10949 36.5195 6.51172C35.9218 5.91395 35.111 5.57812 34.2656 5.57812C33.7038 5.58032 33.1531 5.73452 32.6719 6.02437V4.78125C32.6719 3.93587 32.336 3.12512 31.7383 2.52735C31.1405 1.92957 30.3298 1.59375 29.4844 1.59375C28.639 1.59375 27.8282 1.92957 27.2305 2.52735C26.6327 3.12512 26.2969 3.93587 26.2969 4.78125V6.02437C25.8156 5.73452 25.2649 5.58032 24.7031 5.57812C23.8577 5.57812 23.047 5.91395 22.4492 6.51172C21.8514 7.10949 21.5156 7.92025 21.5156 8.76562V10.0087C21.0344 9.7189 20.4837 9.5647 19.9219 9.5625C19.5031 9.56198 19.0884 9.64406 18.7015 9.80407C18.3145 9.96407 17.9629 10.1988 17.6668 10.4949C17.3707 10.791 17.1359 11.1426 16.9759 11.5296C16.8159 11.9165 16.7338 12.3313 16.7344 12.75V15.8897C14.9908 15.2224 13.1075 15.0036 11.2574 15.2534C9.40726 15.5031 7.64945 16.2135 6.14521 17.3192C4.64098 18.4249 3.43847 19.8907 2.64799 21.582C1.85751 23.2733 1.50437 25.136 1.62096 26.9993C1.73756 28.8626 2.32015 30.6668 3.3153 32.2464C4.31045 33.8259 5.6863 35.1304 7.31664 36.04C8.94699 36.9496 10.7796 37.4352 12.6465 37.4524C14.5133 37.4696 16.3546 37.0177 18.0014 36.1383C18.0572 36.2419 18.1209 36.3375 18.1847 36.4491C18.352 36.72 18.5273 37.0069 18.7186 37.3495L19.9219 39.278V41.4375H19.125C18.9306 41.438 18.7431 41.5096 18.5978 41.6388C18.4525 41.7679 18.3594 41.9457 18.3361 42.1387L17.5392 48.5137C17.5239 48.625 17.5331 48.7383 17.5661 48.8457C17.5992 48.953 17.6553 49.0519 17.7305 49.1353C17.8045 49.2211 17.8963 49.2897 17.9995 49.3365C18.1027 49.3833 18.2148 49.4071 18.3281 49.4062H39.0469C39.1602 49.4071 39.2723 49.3833 39.3755 49.3365C39.4787 49.2897 39.5705 49.2211 39.6445 49.1353C39.7197 49.0519 39.7758 48.953 39.8089 48.8457C39.8419 48.7383 39.8511 48.625 39.8358 48.5137L39.0389 42.1387C39.0156 41.9457 38.9225 41.7679 38.7772 41.6388C38.6319 41.5096 38.4444 41.438 38.25 41.4375H37.4531V39.3178L49.2309 24.1055C49.2488 24.0857 49.2648 24.0644 49.2788 24.0417C49.6056 23.5151 49.7144 22.8818 49.582 22.2762C49.4496 21.6707 49.0864 21.1406 48.5695 20.7984ZM18.3281 12.75C18.3313 12.3283 18.5002 11.9247 18.7984 11.6265C19.0966 11.3283 19.5002 11.1594 19.9219 11.1562C20.3442 11.1575 20.7488 11.3258 21.0474 11.6244C21.346 11.9231 21.5144 12.3277 21.5156 12.75V19.4198C20.6367 18.3035 19.5554 17.3627 18.3281 16.6467V12.75ZM12.75 35.8594C10.8587 35.8594 9.0099 35.2985 7.43736 34.2478C5.86481 33.1971 4.63916 31.7036 3.9154 29.9563C3.19164 28.209 3.00227 26.2863 3.37124 24.4313C3.74021 22.5764 4.65095 20.8725 5.98829 19.5352C7.32563 18.1978 9.0295 17.2871 10.8844 16.9181C12.7394 16.5491 14.6621 16.7385 16.4094 17.4623C18.1567 18.186 19.6502 19.4117 20.7009 20.9842C21.7517 22.5568 22.3125 24.4056 22.3125 26.2969C22.3104 28.8324 21.3022 31.2634 19.5094 33.0563C17.7165 34.8491 15.2855 35.8573 12.75 35.8594ZM37.5487 43.0312L38.1464 47.8125H19.2286L19.8262 43.0312H37.5487ZM47.94 23.1731L36.0267 38.5608C35.9166 38.6987 35.8575 38.8704 35.8594 39.0469V41.4375H21.5156V39.0469C21.5166 38.8976 21.4752 38.7511 21.3961 38.6245L20.0892 36.5287C19.898 36.202 19.7147 35.9072 19.5473 35.6283C19.4756 35.5008 19.4119 35.3892 19.3481 35.2777C21.3419 33.8226 22.794 31.7447 23.4752 29.3723C24.1563 26.9999 24.0276 24.4681 23.1094 22.177V8.76562C23.1094 8.34294 23.2773 7.93756 23.5762 7.63867C23.8751 7.33979 24.2804 7.17187 24.7031 7.17187C25.1258 7.17187 25.5312 7.33979 25.8301 7.63867C26.129 7.93756 26.2969 8.34294 26.2969 8.76562V24.7031H27.8906V4.78125C27.8906 4.35856 28.0585 3.95318 28.3574 3.6543C28.6563 3.35541 29.0617 3.1875 29.4844 3.1875C29.9071 3.1875 30.3124 3.35541 30.6113 3.6543C30.9102 3.95318 31.0781 4.35856 31.0781 4.78125V24.7031H32.6719V8.76562C32.6719 8.34294 32.8398 7.93756 33.1387 7.63867C33.4376 7.33979 33.8429 7.17187 34.2656 7.17187C34.6883 7.17187 35.0937 7.33979 35.3926 7.63867C35.6915 7.93756 35.8594 8.34294 35.8594 8.76562V27.8906H34.2656C32.9976 27.8906 31.7814 28.3944 30.8848 29.291C29.9881 30.1877 29.4844 31.4038 29.4844 32.6719H31.0781C31.0781 31.8265 31.414 31.0157 32.0117 30.418C32.6095 29.8202 33.4202 29.4844 34.2656 29.4844H36.6562C36.7726 29.4824 36.8871 29.455 36.9917 29.4041C37.0964 29.3532 37.1886 29.2799 37.2619 29.1895L37.2698 29.1975L43.4058 21.8344C43.7827 21.3796 44.3153 21.0813 44.9 20.9973C45.4847 20.9134 46.0797 21.0498 46.5694 21.3802L47.685 22.1212C47.8521 22.2323 47.9712 22.4023 48.0185 22.5973C48.0658 22.7922 48.0377 22.9979 47.94 23.1731Z" fill="white"/>
<path d="M17.2603 26.2969L19.5155 24.0417C19.6639 23.8924 19.7472 23.6904 19.7472 23.4799C19.7472 23.2694 19.6639 23.0674 19.5155 22.9181L16.1288 19.5314C15.9762 19.3892 15.7755 19.3102 15.567 19.3102C15.3584 19.3102 15.1577 19.3892 15.0052 19.5314L12.75 21.7866L10.4948 19.5314C10.3423 19.3892 10.1416 19.3102 9.93305 19.3102C9.72454 19.3102 9.52378 19.3892 9.37125 19.5314L5.98453 22.9181C5.83611 23.0674 5.75281 23.2694 5.75281 23.4799C5.75281 23.6904 5.83611 23.8924 5.98453 24.0417L8.23969 26.2969L5.98453 28.552C5.83611 28.7013 5.75281 28.9033 5.75281 29.1138C5.75281 29.3243 5.83611 29.5263 5.98453 29.6756L9.37125 33.0623C9.52378 33.2045 9.72454 33.2836 9.93305 33.2836C10.1416 33.2836 10.3423 33.2045 10.4948 33.0623L12.75 30.8072L15.0052 33.0623C15.1571 33.2091 15.3597 33.2919 15.5709 33.2934C15.7798 33.2918 15.9799 33.2089 16.1288 33.0623L19.5155 29.6756C19.6639 29.5263 19.7472 29.3243 19.7472 29.1138C19.7472 28.9033 19.6639 28.7013 19.5155 28.552L17.2603 26.2969ZM15.5709 31.365L13.3158 29.1178C13.2423 29.0421 13.1543 28.982 13.0571 28.9409C12.9599 28.8998 12.8555 28.8787 12.75 28.8787C12.6445 28.8787 12.5401 28.8998 12.4429 28.9409C12.3457 28.982 12.2577 29.0421 12.1842 29.1178L9.92906 31.365L7.68188 29.1178L9.92906 26.8626C10.0047 26.7891 10.0649 26.7012 10.1059 26.604C10.147 26.5068 10.1682 26.4024 10.1682 26.2969C10.1682 26.1914 10.147 26.0869 10.1059 25.9898C10.0649 25.8926 10.0047 25.8046 9.92906 25.7311L7.68188 23.4759L9.92906 21.2287L12.1842 23.4759C12.3365 23.6217 12.5392 23.703 12.75 23.703C12.9608 23.703 13.1635 23.6217 13.3158 23.4759L15.5709 21.2287L17.8181 23.4759L15.5709 25.7311C15.4953 25.8046 15.4351 25.8926 15.3941 25.9898C15.353 26.0869 15.3318 26.1914 15.3318 26.2969C15.3318 26.4024 15.353 26.5068 15.3941 26.604C15.4351 26.7012 15.4953 26.7891 15.5709 26.8626L17.8181 29.1178L15.5709 31.365Z" fill="white"/>
</svg>
