<svg width="86" height="85" viewBox="0 0 86 85" fill="none" xmlns="http://www.w3.org/2000/svg">
<path d="M59.1487 58.3586C58.975 58.0123 58.6209 57.7936 58.2334 57.7936C57.8461 57.7936 57.4917 58.0123 57.3181 58.3586C57.1987 58.5966 54.3883 64.2282 53.9386 67.6315C53.7452 69.0967 54.2217 70.7078 55.1822 71.8362C56.8236 73.7638 59.6387 73.7687 61.2843 71.8362C62.245 70.708 62.7215 69.0969 62.528 67.6315C62.0782 64.228 59.2681 58.5965 59.1487 58.3586ZM59.7249 70.5082C58.8905 71.4882 57.578 71.4904 56.7417 70.5082C56.1542 69.8182 55.8509 68.7943 55.9691 67.8996C56.2214 65.989 57.3863 63.1264 58.2333 61.2306C59.0801 63.1264 60.2449 65.989 60.4973 67.8996C60.6156 68.7943 60.3123 69.8182 59.7249 70.5082Z" fill="#F05900"/>
<path d="M20.3485 20.1123C20.9085 20.1872 21.4239 19.7927 21.4983 19.232C21.9444 15.8709 24.4078 12.4838 27.4889 10.9955C31.8728 8.87773 37.308 9.09211 42.0281 11.569C44.8462 13.0477 47.0002 14.9294 48.2573 17.0109C48.7629 17.8483 49.1532 18.9817 49.4175 20.3797C49.5103 20.8712 49.94 21.2139 50.4225 21.2139C50.4855 21.2139 50.5495 21.208 50.6138 21.1958C51.1695 21.0908 51.5349 20.5552 51.4299 19.9994C51.1202 18.3608 50.6428 16.9991 50.0104 15.952C48.5394 13.5163 46.1738 11.4314 42.9798 9.75546C37.6874 6.97843 31.5634 6.75257 26.5979 9.1513C22.8734 10.9507 20.0082 14.8935 19.468 18.9625C19.3937 19.5231 19.7878 20.0379 20.3485 20.1123Z" fill="#F05900"/>
<path d="M31.0273 64.2417C30.6274 64.6416 30.6274 65.2901 31.0273 65.69C31.9752 66.6378 33.2353 67.1598 34.5759 67.1598C35.9164 67.1598 37.1765 66.6378 38.1244 65.69C38.5243 65.2901 38.5243 64.6416 38.1244 64.2417C37.7245 63.8418 37.076 63.8418 36.6761 64.2417C36.115 64.8027 35.3692 65.1116 34.5759 65.1116C33.7825 65.1116 33.0365 64.8027 32.4756 64.2417C32.0755 63.8418 31.4272 63.8418 31.0273 64.2417Z" fill="#F05900"/>
<path d="M36.9259 57.7873C37.3258 57.3874 37.3258 56.739 36.9259 56.3391C36.526 55.9392 35.8776 55.9392 35.4777 56.3391C35.2368 56.58 34.9164 56.7127 34.5757 56.7127C34.235 56.7127 33.9148 56.5801 33.6738 56.3391C33.2739 55.9392 32.6254 55.9392 32.2255 56.3391C31.8256 56.739 31.8256 57.3874 32.2255 57.7873C32.8533 58.4152 33.6879 58.7609 34.5756 58.7609C35.4634 58.7609 36.2981 58.4152 36.9259 57.7873Z" fill="#F05900"/>
<path d="M29.7609 47.5162C29.361 47.1163 28.7125 47.1163 28.3126 47.5162C27.4875 48.3413 26.3905 48.7956 25.2237 48.7956C24.0569 48.7956 22.9598 48.3412 22.1347 47.5162C21.7348 47.1163 21.0864 47.1163 20.6865 47.5162C20.2866 47.9161 20.2866 48.5646 20.6865 48.9645C20.9257 49.2037 21.181 49.4207 21.4489 49.6166L20.824 50.7793C20.5562 51.2775 20.7431 51.8983 21.2411 52.166C21.3954 52.249 21.5613 52.2883 21.7251 52.2883C22.0899 52.2883 22.4432 52.0927 22.628 51.7489L23.2763 50.5429C23.577 50.6383 23.8854 50.7115 24.1997 50.7617V51.9536C24.1997 52.5192 24.6583 52.9776 25.2237 52.9776C25.7894 52.9776 26.2478 52.519 26.2478 51.9536V50.7617C26.5621 50.7115 26.8705 50.6383 27.1712 50.5429L27.8194 51.7489C28.0042 52.0929 28.3573 52.2883 28.7222 52.2883C28.8859 52.2883 29.052 52.2489 29.2062 52.166C29.7044 51.8983 29.8912 51.2774 29.6234 50.7793L28.9984 49.6166C29.2664 49.4208 29.5216 49.2037 29.7609 48.9645C30.1608 48.5644 30.1608 47.9161 29.7609 47.5162Z" fill="#F05900"/>
<path d="M48.465 47.5161C48.0652 47.1162 47.4168 47.1163 47.0167 47.5161C46.1918 48.3412 45.0947 48.7955 43.928 48.7955C42.7611 48.7955 41.664 48.341 40.8389 47.5161C40.439 47.1162 39.7906 47.1162 39.3907 47.5161C38.9908 47.916 38.9908 48.5644 39.3907 48.9643C39.6298 49.2035 39.8851 49.4206 40.1532 49.6164L39.5282 50.779C39.2604 51.2771 39.4471 51.8981 39.9452 52.1659C40.0996 52.2489 40.2655 52.2881 40.4293 52.2881C40.7941 52.2881 41.1472 52.0926 41.3322 51.7488L41.9805 50.5428C42.2812 50.6382 42.5896 50.7113 42.9039 50.7615V51.9534C42.9039 52.519 43.3624 52.9774 43.928 52.9774C44.4936 52.9774 44.952 52.5189 44.952 51.9534V50.7615C45.2663 50.7113 45.5746 50.6382 45.8752 50.5428L46.5234 51.7486C46.7084 52.0926 47.0614 52.288 47.4265 52.288C47.5901 52.288 47.7561 52.2486 47.9103 52.1657C48.4085 51.8981 48.5953 51.2771 48.3276 50.779L47.7025 49.6164C47.9705 49.4206 48.2259 49.2035 48.465 48.9642C48.8649 48.5644 48.8649 47.9161 48.465 47.5161Z" fill="#F05900"/>
<path d="M72.5731 35.9922C71.9461 35.3652 71.1127 35.02 70.2259 35.02C69.3393 35.02 68.5059 35.3653 67.8788 35.9922L63.6885 40.1825L62.6811 39.1751C62.1374 38.6314 61.2527 38.6314 60.7084 39.1751L58.4918 41.3919C57.9481 41.9358 57.9481 42.8208 58.4918 43.3645L59.6899 44.5625L54.6898 49.5626C54.6272 48.3856 54.5312 47.2308 54.4256 46.1184L54.3656 45.4642C54.5655 45.045 55.0123 44.1082 55.0269 44.0777C57.5899 38.7046 57.2206 31.987 54.0862 26.9638C51.0228 22.0545 45.8982 19.2257 41.1411 16.2515C38.0573 14.323 34.5619 12.137 30.6889 12.6047C28.6224 12.8542 26.7914 13.9139 25.5333 15.5888C24.756 16.6234 24.266 17.8051 24.083 19.0445C22.1418 20.1289 20.1232 21.5243 18.2281 23.3166C12.5974 28.6418 10.772 36.9805 14.1575 44.0779L14.7914 45.4071L14.7265 46.1154C14.3236 50.3643 14.0129 55.2756 15.4348 59.7897C15.5725 60.2267 15.9761 60.5064 16.4113 60.5064C16.5131 60.5064 16.6168 60.4911 16.7192 60.4588C17.2585 60.289 17.5581 59.714 17.3881 59.1745C16.0812 55.0255 16.3815 50.3581 16.7656 46.3057L16.8419 45.4742C17.0414 44.9914 17.2149 44.4949 17.3817 44.0124C17.8255 42.7287 18.2448 41.5163 19.0927 40.76C20.8527 39.1902 23.0974 38.1105 25.2683 37.0661C28.4459 35.5358 31.6185 33.9221 34.4624 31.8089C36.3331 32.989 38.1118 34.0373 39.8745 35C40.3708 35.2709 40.9929 35.0884 41.2641 34.5921C41.5353 34.0958 41.3526 33.4736 40.8562 33.2025C37.6723 31.4635 34.4304 29.4384 30.6539 26.8293C28.0299 25.0164 26.5309 23.5624 26.1245 21.0752C25.8766 19.5589 26.2482 18.0475 27.1709 16.8192C28.0907 15.5947 29.4274 14.8202 30.9346 14.6382C34.0893 14.2579 37.259 16.2395 40.0554 17.9883C44.5268 20.7847 49.46 23.4189 52.3487 28.0483C55 32.297 55.4143 37.9179 53.4633 42.5609C53.0202 41.3431 52.4814 40.1469 51.4549 39.2315C49.4828 37.4726 47.099 36.3251 44.996 35.3128C44.4865 35.0677 43.8745 35.2817 43.6291 35.7914C43.3837 36.301 43.5981 36.913 44.1076 37.1583C46.0889 38.112 48.3345 39.1929 50.0915 40.76C50.9396 41.5162 51.3588 42.7287 51.8027 44.0124C51.9577 44.4606 52.1185 44.9209 52.3003 45.3711L52.3863 46.3087C52.5451 47.983 52.6862 49.7527 52.7087 51.5438L42.7678 61.4849C42.1918 62.0609 41.8746 62.8267 41.8746 63.6414C41.8744 66.2647 45.2334 67.6452 47.0807 65.7978C47.0823 65.7962 50.1759 62.7027 50.1759 62.7027C48.193 66.102 44.5703 70.2316 39.1306 73.6283C37.9149 74.3873 35.709 75.452 34.5949 75.452C34.5909 75.452 34.5868 75.452 34.583 75.452H34.569C33.4605 75.4629 31.2413 74.3902 30.0213 73.6283C25.5584 70.8415 21.6581 67.0811 19.3202 63.3112C19.0222 62.8306 18.391 62.6824 17.9103 62.9806C17.4297 63.2787 17.2815 63.91 17.5797 64.3906C20.0772 68.418 24.2167 72.4183 28.9363 75.3654C29.0763 75.4529 32.3795 77.5 34.5592 77.5H34.5924C36.772 77.4997 40.0752 75.4529 40.2152 75.3656C46.412 71.4961 51.3087 66.103 53.3137 60.9391C53.5725 60.2726 53.7878 59.5952 53.9679 58.9106L64.0028 48.8758L65.2009 50.0738C65.4729 50.3458 65.83 50.4816 66.1871 50.4816C66.5444 50.4816 66.9016 50.3458 67.1736 50.0738L69.3902 47.8571C69.9339 47.3132 69.9339 46.4282 69.3902 45.8845L68.3828 44.8771L72.5733 40.6867C73.8675 39.3923 73.8673 37.2862 72.5731 35.9922ZM29.4896 28.5142C30.5699 29.2606 31.6063 29.9587 32.6123 30.6182C30.1149 32.378 27.3637 33.782 24.7854 35.0255L24.3802 35.2206C22.0817 36.3263 19.705 37.4697 17.7296 39.2315C16.7028 40.1472 16.1639 41.3441 15.7207 42.5624C13.2431 36.7186 14.5233 29.9014 19.0069 25.3977C20.4931 23.9049 22.2683 22.5306 24.1047 21.4143C24.6832 24.9321 27.0819 26.8506 29.4896 28.5142ZM45.6324 64.3494C45.4434 64.5385 45.1918 64.6428 44.9244 64.6428C44.3697 64.643 43.9225 64.1929 43.9225 63.6412C43.9225 63.3737 44.0268 63.1221 44.216 62.9329L61.138 46.0108L62.5545 47.4273L45.6324 64.3494ZM66.1871 48.1634L60.4019 42.3782L61.6947 41.0852L67.4799 46.8705L66.1871 48.1634ZM71.1249 39.2383L66.9346 43.4287L65.1366 41.6309L69.3269 37.4406C69.8225 36.9449 70.6293 36.9447 71.1249 37.4406C71.6205 37.9361 71.6205 38.7426 71.1249 39.2383Z" fill="#F05900"/>
</svg>
