<svg width="86" height="85" viewBox="0 0 86 85" fill="none" xmlns="http://www.w3.org/2000/svg">
<path d="M20.4783 57.517C20.6808 57.4029 20.8494 57.2369 20.9666 57.0362C21.0839 56.8355 21.1457 56.6072 21.1457 56.3747C21.1457 56.1422 21.0839 55.914 20.9666 55.7132C20.8494 55.5125 20.6808 55.3466 20.4783 55.2324L16.9293 53.2917L14.9886 49.7427C14.8662 49.5507 14.6974 49.3926 14.4977 49.2832C14.2981 49.1737 14.074 49.1163 13.8463 49.1163C13.6186 49.1163 13.3946 49.1737 13.1949 49.2832C12.9952 49.3926 12.8264 49.5507 12.704 49.7427L10.7633 53.2917L7.2143 55.2324C7.01178 55.3466 6.84326 55.5125 6.72598 55.7132C6.60871 55.9139 6.54691 56.1422 6.54691 56.3747C6.54691 56.6072 6.60871 56.8355 6.72598 57.0362C6.84326 57.2369 7.01178 57.4029 7.2143 57.517L10.7633 59.4578L12.704 63.0067C12.8162 63.2117 12.9814 63.3826 13.1824 63.5017C13.3834 63.6209 13.6127 63.6837 13.8463 63.6837C14.0799 63.6837 14.3093 63.6209 14.5102 63.5017C14.7112 63.3826 14.8764 63.2117 14.9886 63.0067L16.9293 59.4578L20.4783 57.517ZM14.8278 57.8736L13.8463 59.6688L12.8648 57.8736C12.6515 57.3464 10.994 56.6723 10.5522 56.3747L12.3474 55.3932C12.8746 55.1799 13.5487 53.5224 13.8463 53.0806L14.8278 54.8758C15.0411 55.4031 16.6986 56.0772 17.1404 56.3748C16.6865 56.6758 15.0483 57.3415 14.8278 57.8736Z" fill="#F05900"/>
<path d="M54.2995 19.4857L57.8479 21.4265L59.7893 24.9748C59.9012 25.1798 60.0662 25.351 60.2671 25.4702C60.4679 25.5894 60.6972 25.6524 60.9308 25.6524C61.1643 25.6525 61.3936 25.5897 61.5945 25.4705C61.7955 25.3514 61.9606 25.1804 62.0726 24.9754L64.014 21.4265L67.5623 19.4857C67.765 19.3717 67.9337 19.2058 68.0511 19.0051C68.1685 18.8044 68.2304 18.576 68.2304 18.3434C68.2304 18.1109 68.1685 17.8825 68.0511 17.6818C67.9337 17.481 67.765 17.3151 67.5623 17.2011L64.0139 15.2604L62.0726 11.7115C61.9502 11.5195 61.7815 11.3615 61.5819 11.2521C61.3823 11.1426 61.1583 11.0853 60.9307 11.0853C60.7031 11.0854 60.4791 11.1429 60.2796 11.2524C60.0801 11.362 59.9114 11.5201 59.7892 11.7121L57.8479 15.2604L54.2995 17.2012C54.0968 17.3152 53.9282 17.4811 53.8108 17.6818C53.6934 17.8825 53.6315 18.1109 53.6315 18.3434C53.6315 18.576 53.6934 18.8044 53.8108 19.0051C53.9282 19.2058 54.0968 19.3717 54.2995 19.4857ZM59.432 17.3619C59.9593 17.1485 60.633 15.4911 60.931 15.0493L61.9137 16.8445C62.1266 17.3716 63.7835 18.0458 64.225 18.3435L62.4311 19.3249C61.9038 19.5382 61.2289 21.1958 60.9309 21.6375C60.6295 21.1836 59.9641 19.5455 59.432 19.3249L57.6368 18.3434L59.432 17.3619Z" fill="#F05900"/>
<path d="M77.222 58.4953C78.2393 56.6703 77.366 53.785 75.5005 53.1638C77.7385 47.6329 73.2547 43.7721 71.6815 42.6377C71.3519 42.3979 70.9632 42.2523 70.5571 42.2167C70.151 42.1811 69.7428 42.2567 69.3765 42.4356C68.9699 42.638 68.6311 42.9545 68.4015 43.3463C68.1719 43.7382 68.0614 44.1884 68.0836 44.6421C67.8922 45.3706 67.4572 46.0118 66.8509 46.4589C66.2447 46.906 65.5036 47.1323 64.751 47.0999C59.7764 45.6559 55.0179 45.1809 53.1082 49.8843C52.7806 50.9997 52.8044 52.1889 53.1761 53.2903C52.3359 53.8284 51.7258 54.6598 51.4645 55.6227C51.2031 56.5856 51.3091 57.6113 51.7619 58.5004C50.0498 60.7732 49.2862 63.6216 49.6319 66.4461L45.7179 65.4147C44.9254 65.2126 44.223 64.752 43.7218 64.1057C43.2206 63.4594 42.9493 62.6645 42.9508 61.8467V58.9503C45.211 56.9074 47.1434 54.5289 48.6802 51.8983C48.8546 51.6009 48.9041 51.2465 48.8176 50.9128C48.7311 50.5791 48.5158 50.2933 48.2189 50.118C47.922 49.9428 47.5677 49.8925 47.2338 49.9781C46.8998 50.0638 46.6135 50.2783 46.4375 50.5748C43.2125 56.005 37.752 62.106 31.4653 57.1044C27.5407 53.4407 24.6255 48.8284 23.0001 43.7115L24.3331 41.067C24.9506 39.8 25.4543 38.4806 25.8384 37.1245C26.2041 36.0573 26.8701 35.1184 27.7564 34.4205C28.6427 33.7226 29.7116 33.2955 30.8348 33.1903L34.7321 32.7688C38.3224 32.3817 42.0215 31.9838 44.8013 28.3038C47.3744 32.398 49.2169 36.908 50.2465 41.6327C49.8128 43.1406 49.2893 44.6212 48.6789 46.0666C48.5492 46.3832 48.5495 46.7382 48.6796 47.0547C48.8097 47.3711 49.0592 47.6236 49.3741 47.7575C49.689 47.8913 50.0439 47.8958 50.3621 47.7699C50.6803 47.6441 50.9361 47.398 51.0741 47.0849C56.8053 33.7292 54.7207 20.9025 45.3697 16.498C45.6169 10.0084 39.7976 7.45248 36.2868 7.50082C32.8387 7.44762 26.9323 9.99075 27.2045 16.5179C25.6814 17.3153 19.9038 21.0376 22.054 22.7797C22.3273 22.9907 22.6732 23.0844 23.0156 23.0403C23.358 22.9962 23.6689 22.8179 23.8798 22.5446C25.2594 20.7858 27.0426 19.3854 29.0784 18.4623C31.345 17.4263 33.7854 16.8235 36.2736 16.685C38.7709 16.8077 41.221 17.411 43.4898 18.4617C49.8402 21.4495 52.5398 27.584 51.3868 36.2646C50.6009 33.8395 49.6078 31.4866 48.4182 29.2319C46.3858 25.7728 45.061 23.5436 43.554 25.4432C39.1442 33.9676 26.7098 26.3594 23.3618 36.3212C23 37.6107 22.5183 38.8635 21.9231 40.0632C20.717 35.4445 20.555 30.2105 21.7097 26.7744C21.8066 26.4469 21.771 26.0943 21.6104 25.7928C21.4498 25.4913 21.1772 25.265 20.8513 25.1626C20.5255 25.0602 20.1724 25.0899 19.8682 25.2454C19.5641 25.4009 19.3332 25.6697 19.2254 25.9939C16.221 36.5883 21.2348 51.3874 29.6267 58.9443L29.627 61.8479C29.6262 62.6671 29.3528 63.4628 28.8498 64.1094C28.3469 64.7561 27.6429 65.2169 26.8491 65.4191L21.7637 66.7579C20.3476 67.1615 19.0509 67.9034 17.9853 68.9195C16.9197 69.9357 16.1171 71.1957 15.6466 72.5909C15.5032 72.9011 15.4874 73.2553 15.6028 73.577C15.7183 73.8988 15.9556 74.1621 16.2636 74.3104C16.5716 74.4586 16.9255 74.4797 17.2489 74.3692C17.5723 74.2587 17.8393 74.0254 17.9922 73.7197C18.3083 72.6718 18.8781 71.7182 19.6509 70.9432C20.4238 70.1683 21.376 69.596 22.4229 69.2771L27.5044 67.9389C29.052 67.5098 30.3881 66.5274 31.2593 65.1784C32.1305 63.8293 32.4761 62.2073 32.2306 60.6203C33.4984 61.222 34.8839 61.5352 36.2873 61.5376C37.6906 61.54 39.0771 61.2315 40.347 60.6341C40.103 62.2178 40.4487 63.8359 41.3185 65.1816C42.1883 66.5274 43.5217 67.5071 45.0658 67.9351L50.146 69.2738C50.4858 69.5139 50.4847 70.1376 50.7284 70.5145L51.7365 73.1717C52.0238 73.9482 52.496 74.6429 53.1123 75.1958C53.7286 75.7486 54.4704 76.1429 55.2734 76.3444C61.3165 77.8843 67.6492 77.8852 73.6928 76.347C74.4968 76.1479 75.24 75.7553 75.8577 75.2035C76.4755 74.6517 76.9491 73.9573 77.2373 73.1808L78.2226 70.5751C80.8474 64.5765 78.6751 60.3951 77.222 58.4953ZM36.2717 14.0812C34.0954 14.1764 31.9455 14.5958 29.893 15.3255C30.5415 8.44775 42.025 8.43721 42.6809 15.3229C40.6198 14.5865 38.4587 14.1678 36.2717 14.0812ZM55.5798 50.7057C56.9451 46.5154 65.887 50.0605 68.2756 51.3116C68.5813 51.4646 68.9348 51.4912 69.26 51.3858C69.5852 51.2803 69.8558 51.0512 70.0135 50.7479C70.1712 50.4447 70.2033 50.0915 70.103 49.7648C70.0026 49.438 69.7777 49.1639 69.4769 49.0015C69.4433 48.9842 69.0659 48.7912 68.4679 48.5191C69.606 47.7099 70.3856 46.4907 70.6427 45.1182C72.5525 46.6516 74.7779 49.461 72.5585 53.2556C67.0421 54.1268 61.4213 54.1019 55.9129 53.1817C55.5011 52.4254 55.3825 51.5439 55.5798 50.7057ZM75.8134 69.5917C75.1001 71.127 74.9212 73.404 73.0546 73.8228C67.4299 75.2519 61.5371 75.251 55.9129 73.8202C55.5188 73.7186 55.155 73.5235 54.8523 73.2515C54.5495 72.9796 54.3168 72.6387 54.1737 72.2577C53.514 70.3413 52.2426 67.8101 52.1802 65.8539C51.9965 63.844 52.5488 61.8358 53.7344 60.2024C54.1808 60.3272 54.635 60.4223 55.094 60.4872C55.2613 60.5133 55.4321 60.5059 55.5965 60.4653C55.761 60.4248 55.9157 60.352 56.0517 60.2511C56.1877 60.1502 56.3023 60.0233 56.3888 59.8777C56.4753 59.7321 56.532 59.5708 56.5556 59.4031C56.5878 59.236 56.5857 59.0641 56.5495 58.8979C56.5133 58.7316 56.4438 58.5744 56.3451 58.4358C56.2463 58.2972 56.1205 58.1801 55.9752 58.0915C55.8299 58.003 55.6682 57.9448 55.4997 57.9206C55.0863 57.8758 54.68 57.7799 54.2901 57.635C53.8077 57.3403 53.8205 55.6577 54.4801 55.5801C60.7609 56.7426 67.1964 56.7998 73.4969 55.7492L74.547 55.5719C75.0951 55.6836 75.304 57.4225 74.5457 57.7243C70.3914 58.5158 66.1585 58.8165 61.934 58.62C61.5926 58.6079 61.2602 58.7305 61.0084 58.9613C60.7566 59.1921 60.6056 59.5126 60.5879 59.8537C60.5702 60.1948 60.6873 60.5292 60.9139 60.7848C61.1405 61.0403 61.4585 61.1966 61.7993 61.2199C66.3078 61.4542 70.8279 61.1119 75.2497 60.2013C76.3481 61.7002 77.8656 64.8956 75.8134 69.5917Z" fill="#F05900"/>
</svg>
