<svg width="86" height="85" viewBox="0 0 86 85" fill="none" xmlns="http://www.w3.org/2000/svg">
<path d="M45.5566 41.6641C45.6543 41.6641 45.7412 41.6533 45.8389 41.6207L46.8159 41.295C47.2936 41.143 47.5541 40.6219 47.4021 40.1443C47.3261 39.9163 47.1633 39.7209 46.9462 39.6123C46.7291 39.5038 46.4794 39.4929 46.2622 39.5689L45.2852 39.8946C44.8075 40.0574 44.547 40.5677 44.699 41.0453C44.8184 41.4144 45.1658 41.675 45.5675 41.675L45.5566 41.6641Z" fill="#F05900"/>
<path d="M45.5566 47.7109C45.7412 47.7109 45.9257 47.6567 46.0777 47.5481L54.4477 41.6641C54.6431 41.523 54.7843 41.3167 54.8168 41.0779C54.8602 40.8391 54.806 40.6002 54.6648 40.394C54.5237 40.1985 54.3174 40.0574 54.0786 40.0248C53.8398 39.9814 53.6009 40.0357 53.4055 40.1768L45.0355 46.0608C44.8401 46.202 44.699 46.4082 44.6664 46.6471C44.623 46.8859 44.6773 47.1247 44.8184 47.331C44.9921 47.5698 45.2635 47.7218 45.5675 47.7218L45.5566 47.7109Z" fill="#F05900"/>
<path d="M21.8035 46.0608C20.9242 45.1706 20.4899 44.1827 20.2837 43.5205C20.1425 43.0645 19.73 42.7606 19.2198 42.7606C18.7204 42.8257 18.3404 43.108 18.221 43.5205C18.0039 44.2153 17.5588 45.2249 16.636 46.1368C15.7458 47.0162 14.7579 47.4395 14.0849 47.6458C13.6289 47.7869 13.3249 48.1995 13.3249 48.6771C13.3249 49.1548 13.618 49.5782 14.074 49.7193C14.7254 49.9256 15.6698 50.349 16.56 51.1957C17.5154 52.1185 17.993 53.1498 18.221 53.8555C18.3621 54.3006 18.7855 54.6045 19.2632 54.6045C19.7409 54.6045 20.1534 54.2897 20.2837 53.8338C20.4899 53.1498 20.935 52.1294 21.8469 51.2283C22.7371 50.349 23.725 49.9147 24.3981 49.7085C24.8541 49.5673 25.1689 49.1548 25.1689 48.6771C25.1689 48.1995 24.8649 47.7761 24.409 47.635C23.725 47.4178 22.7154 46.9619 21.8144 46.05L21.8035 46.0608ZM22.2378 48.6771C21.619 49.0245 21.0545 49.4479 20.5551 49.9473C20.034 50.4684 19.578 51.0546 19.2198 51.706C18.829 51.0329 18.3621 50.4358 17.8085 49.9039C17.3308 49.4479 16.7989 49.0462 16.2235 48.7097C16.8423 48.3623 17.4068 47.9389 17.9062 47.4504C18.4381 46.9293 18.8832 46.3431 19.2523 45.6917C19.5997 46.2997 20.0231 46.8533 20.5117 47.3527C21.0219 47.8738 21.6081 48.3189 22.2378 48.688V48.6771Z" fill="#F05900"/>
<path d="M54.3174 17.9545C55.2185 18.2476 56.5647 18.8447 57.7914 20.028C59.1267 21.3198 59.7889 22.7637 60.1146 23.7407C60.2666 24.2184 60.7334 24.5332 61.1459 24.5332H61.2111C61.7104 24.5332 62.1447 24.2076 62.2967 23.719C62.5898 22.7528 63.2086 21.3416 64.4896 20.0714C65.738 18.8338 67.1276 18.2259 68.0721 17.9436C68.5498 17.7916 68.8754 17.3574 68.8863 16.8471C68.8863 16.3369 68.5606 15.9027 68.0829 15.7507C67.1168 15.4467 65.7055 14.8171 64.4462 13.536C63.2194 12.2876 62.6115 10.9089 62.3184 9.97525C62.1664 9.49758 61.7321 9.1719 61.2219 9.1719C60.7225 9.1719 60.2774 9.49758 60.1363 9.97525C59.8323 10.9414 59.2027 12.3636 57.9217 13.6337C56.6624 14.8713 55.2836 15.4684 54.35 15.7507C53.8723 15.9027 53.5467 16.3369 53.5467 16.8363C53.5467 17.3357 53.8615 17.7808 54.3392 17.9327L54.3174 17.9545ZM56.4669 16.8797C57.4766 16.3803 58.3885 15.7398 59.181 14.9473C60.0169 14.1331 60.7008 13.1886 61.2219 12.1356C61.7213 13.1344 62.3618 14.0354 63.1434 14.8279C63.9576 15.653 64.8913 16.326 65.9334 16.8471C64.9238 17.3465 64.0119 17.9979 63.2194 18.7904C62.3944 19.6154 61.7104 20.5599 61.2002 21.6021C60.6465 20.5165 59.93 19.5503 59.0724 18.7144C58.3016 17.9762 57.4331 17.3574 56.4778 16.8689L56.4669 16.8797Z" fill="#F05900"/>
<path d="M75.172 44.0199H73.7715V39.2432C73.7715 38.7438 73.359 38.3313 72.8596 38.3313H71.7306V31.7742C71.7306 31.2749 71.3181 30.8623 70.8187 30.8623H65.2169C64.7176 30.8623 64.305 31.2749 64.305 31.7742V38.3313H63.2628C62.7635 38.3313 62.3509 38.7438 62.3509 39.2432V44.0199H61.0374C60.538 44.0199 60.1254 44.4324 60.1254 44.9318V70.563C60.1254 73.8524 62.4704 76.6749 65.662 77.272C65.7923 77.3155 65.9226 77.3372 66.0637 77.3263H66.1397C66.4111 77.3806 66.6825 77.4132 66.9756 77.4132H69.2337C73.0116 77.4132 76.0839 74.3409 76.0839 70.563V44.9318C76.0839 44.4324 75.6713 44.0199 75.172 44.0199ZM67.0516 35.2916C67.0516 35.4002 66.9648 35.4979 66.8453 35.4979H66.118V35.0962H66.8453C66.9539 35.0962 67.0516 35.183 67.0516 35.2916ZM68.8754 35.2807C68.8754 34.1626 67.9635 33.2615 66.8562 33.2615H66.1288V32.6861H69.9068V38.3313H66.1288V37.3108H66.8562C67.9744 37.3108 68.8754 36.3989 68.8754 35.2916V35.2807ZM64.1639 44.0199V40.1551H71.9477V44.0199H64.1639ZM71.8174 70.563V51.5757C71.8174 50.6421 72.5774 49.893 73.5001 49.893H74.26V70.563C74.26 73.2119 72.2082 75.3831 69.6136 75.5785C71.0249 74.2866 71.8174 72.4954 71.8174 70.563ZM69.9936 51.5757V70.563C69.9936 72.9513 68.3001 75.014 65.966 75.4808C63.632 75.0031 61.9493 72.9405 61.9493 70.563V45.8437H74.26V48.0692H73.5001C71.5677 48.0692 69.9936 49.6433 69.9936 51.5757Z" fill="#F05900"/>
<path d="M65.3906 52.7807C64.8913 52.7807 64.4787 53.1933 64.4787 53.6926V65.2544C64.4787 65.7537 64.8913 66.1663 65.3906 66.1663C65.89 66.1663 66.3025 65.7537 66.3025 65.2544V53.6926C66.3025 53.1933 65.89 52.7807 65.3906 52.7807Z" fill="#F05900"/>
<path d="M53.2427 67.3713L45.3503 62.6815C42.9946 61.281 41.4639 58.8167 41.2359 56.0701C45.6977 54.2354 49.2802 50.8701 51.332 46.5711C51.4406 46.3539 51.4514 46.1042 51.3646 45.8763C51.2886 45.6483 51.1149 45.4637 50.8978 45.3552C50.6807 45.2466 50.431 45.2358 50.203 45.3226C49.975 45.4095 49.7905 45.5723 49.6819 45.7894C46.805 51.8145 40.6497 55.701 33.984 55.701C30.3364 55.701 26.8516 54.5828 23.8987 52.4768C23.7033 52.3356 23.4645 52.2813 23.2257 52.3139C22.9868 52.3573 22.7697 52.4876 22.6286 52.683C22.4875 52.8784 22.4332 53.1281 22.4766 53.367C22.52 53.6058 22.6503 53.8121 22.8457 53.9532C24.0182 54.7891 25.2883 55.4948 26.6236 56.0484C26.3956 58.8059 24.8649 61.2702 22.4983 62.6815L14.6059 67.3713C11.4685 69.2277 9.52531 72.6365 9.52531 76.2624V76.5881C9.52531 77.0875 9.93784 77.5 10.4372 77.5H10.6978V77.2395C10.8063 74.4386 11.208 72.2022 15.5179 68.9454L23.4102 64.2556C26.1242 62.6489 27.9481 59.8372 28.3606 56.6889C31.9105 57.7745 35.7753 57.8071 39.4555 56.6889C39.868 59.8263 41.7027 62.638 44.4059 64.2447L52.2874 68.9237C56.3801 71.8006 57.0206 74.7426 57.1075 77.2286V77.4891H57.3789C57.8782 77.4891 58.2908 77.0766 58.2908 76.5772V76.2515C58.2908 72.6256 56.3584 69.2168 53.2318 67.3604L53.2427 67.3713Z" fill="#F05900"/>
<path d="M31.6825 67.6861C30.9226 66.5896 29.6742 65.9383 28.3497 65.9383H23.1822C22.6829 65.9383 22.2703 66.3508 22.2703 66.8502C22.2703 67.3496 22.6829 67.7621 23.1822 67.7621H28.3497C29.0771 67.7621 29.7719 68.1204 30.1844 68.7283L30.8466 69.6836C31.0203 69.9333 31.2917 70.0744 31.5957 70.0744C31.7803 70.0744 31.9539 70.0202 32.1168 69.9116C32.3122 69.7705 32.4533 69.5642 32.4967 69.3254C32.5402 69.0865 32.4968 68.8477 32.3448 68.6414L31.6825 67.6861Z" fill="#F05900"/>
<path d="M44.7641 65.9383H39.5858C38.2613 65.9383 37.0129 66.5896 36.253 67.6861L35.5907 68.6414C35.4496 68.8369 35.3953 69.0865 35.4387 69.3254C35.4822 69.5642 35.6124 69.7705 35.8187 69.9116C35.9707 70.0202 36.1552 70.0744 36.3398 70.0744C36.6438 70.0744 36.9152 69.9333 37.0889 69.6836L37.7511 68.7283C38.1636 68.1312 38.8476 67.773 39.5858 67.773H44.7641C45.2635 67.773 45.676 67.3604 45.676 66.861C45.676 66.3617 45.2635 65.9491 44.7641 65.9491V65.9383Z" fill="#F05900"/>
<path d="M15.1162 41.8487C15.1162 41.8487 15.127 41.9355 15.1379 41.9789C15.1705 42.2069 15.203 42.424 15.2573 42.652C15.355 43.0646 15.7133 43.3577 16.1475 43.3577C16.2126 43.3577 16.2778 43.3577 16.3538 43.3359C16.8423 43.2274 17.1463 42.7389 17.0377 42.2395C16.7446 40.9693 16.5926 39.6449 16.5926 38.3204V30.0264H26.667C31.6391 30.0264 36.0901 26.9976 37.9574 22.4272C39.8246 26.9976 44.2647 30.0264 49.2477 30.0264H51.3755V32.6861C51.3755 33.1855 51.788 33.5981 52.2874 33.5981C52.7867 33.5981 53.1993 33.1855 53.1993 32.6861V30.0698C55.2511 30.4389 56.7601 32.2085 56.7601 34.3146V34.3905L45.9366 34.3254C45.4372 34.3254 45.0247 34.7271 45.0247 35.2265C45.0247 35.7258 45.4263 36.1384 45.9257 36.1384L56.4452 36.2035L48.6614 38.7764C48.1838 38.9392 47.9232 39.4495 48.0752 39.9271C48.2272 40.394 48.7591 40.6654 49.226 40.5025L56.2064 38.201L55.4356 38.7438C55.2402 38.885 55.0991 39.0912 55.0665 39.3301C55.0231 39.5689 55.0774 39.8077 55.2185 40.014C55.5008 40.4048 56.087 40.5134 56.4887 40.242L62.3184 36.1384C62.3184 36.1384 62.4052 36.0624 62.4704 35.9864C62.4921 35.9538 62.5246 35.9213 62.5463 35.8778C62.5789 35.8235 62.5898 35.7693 62.6115 35.715C62.6223 35.6716 62.6441 35.6173 62.6549 35.5521C62.6549 35.4979 62.6549 35.4436 62.6549 35.3676C62.6549 35.3242 62.6549 35.259 62.644 35.2482C62.644 35.2265 62.6441 35.183 62.6223 35.1396L62.5572 35.0202C62.5572 35.0202 62.5355 34.9551 62.4704 34.8791C62.4269 34.8139 62.3726 34.7814 62.3726 34.7814C62.1989 34.5642 61.9384 34.434 61.667 34.434L58.573 34.4123V34.3254C58.573 31.2097 56.1847 28.5826 53.1016 28.2352C52.3199 18.3019 43.9608 10.5506 33.9732 10.5506C32.7139 10.5506 31.4437 10.6809 30.2061 10.9197C27.9263 8.71594 24.9301 7.50006 21.771 7.50006C15.0728 7.47835 9.61216 12.9281 9.61216 19.6371C9.61216 23.0351 11.0234 26.2485 13.4986 28.55C11.0777 29.4293 9.4276 31.7308 9.4276 34.3146V35.7367C9.4276 38.961 11.9028 41.6098 15.1053 41.8595L15.1162 41.8487ZM14.7579 30.0807V38.3204C14.7579 38.8415 14.7796 39.3843 14.8339 39.9814C12.7713 39.6232 11.2514 37.8536 11.2514 35.7367V34.3146C11.2514 32.241 12.7387 30.4824 14.7579 30.0807ZM14.9099 27.3558C12.6953 25.3909 11.436 22.6117 11.436 19.6371C11.436 13.9377 16.0715 9.30217 21.771 9.30217C24.105 9.30217 26.2871 10.0512 28.1 11.4625C21.0545 13.7314 15.8327 20.028 14.9099 27.3558ZM16.6686 28.1917C17.4611 19.2789 24.9952 12.3419 33.9623 12.3419C42.9294 12.3419 50.4744 19.2789 51.256 28.1917H49.2151C43.4939 28.1917 38.8367 23.5345 38.8367 17.8133C38.8367 17.314 38.4242 16.9014 37.9248 16.9014C37.4254 16.9014 37.0129 17.314 37.0129 17.8133C37.0129 23.5345 32.3556 28.1917 26.6345 28.1917H16.6686Z" fill="#F05900"/>
<path d="M72.6099 23.643C73.1093 23.643 73.5218 23.2305 73.5218 22.7311V21.157C73.5218 20.6576 73.1093 20.2451 72.6099 20.2451C72.1105 20.2451 71.698 20.6576 71.698 21.157V22.7311C71.698 23.2305 72.1105 23.643 72.6099 23.643Z" fill="#F05900"/>
<path d="M71.698 25.456V27.0193C71.698 27.5187 72.1105 27.9312 72.6099 27.9312C73.1093 27.9312 73.5218 27.5187 73.5218 27.0193V25.456C73.5218 24.9566 73.1093 24.5441 72.6099 24.5441C72.1105 24.5441 71.698 24.9566 71.698 25.456Z" fill="#F05900"/>
<path d="M75.6605 23.1762H73.9778C73.4784 23.1762 73.0659 23.5888 73.0659 24.0881C73.0659 24.5875 73.4784 25 73.9778 25H75.6605C76.1599 25 76.5724 24.5875 76.5724 24.0881C76.5724 23.5888 76.1599 23.1762 75.6605 23.1762Z" fill="#F05900"/>
<path d="M69.7222 24.9892H71.2529C71.7523 24.9892 72.1648 24.5767 72.1648 24.0773C72.1648 23.5779 71.7523 23.1654 71.2529 23.1654H69.7222C69.2228 23.1654 68.8103 23.5779 68.8103 24.0773C68.8103 24.5767 69.2228 24.9892 69.7222 24.9892Z" fill="#F05900"/>
<path d="M37.9791 43.6616C37.7728 43.7919 37.6208 43.9873 37.5665 44.2261C37.154 45.898 35.6559 47.0596 33.9406 47.0596C32.2253 47.0596 30.7272 45.898 30.3147 44.2261C30.2604 43.9873 30.1084 43.7919 29.9022 43.6616C29.6959 43.5314 29.4462 43.4988 29.2182 43.5639C28.7297 43.6833 28.4366 44.1827 28.556 44.6712C29.1748 47.1573 31.3894 48.8834 33.9515 48.8834C36.5135 48.8834 38.7281 47.1464 39.3469 44.6712C39.4663 44.1827 39.1732 43.6833 38.6847 43.5639C38.4459 43.4988 38.207 43.5422 38.0008 43.6616H37.9791Z" fill="#F05900"/>
</svg>
