<svg width="86" height="85" viewBox="0 0 86 85" fill="none" xmlns="http://www.w3.org/2000/svg">
<path d="M63.4706 14.3872L66.2071 15.8839L67.7038 18.6205C67.8042 18.8042 67.9523 18.9575 68.1324 19.0642C68.3125 19.171 68.518 19.2273 68.7274 19.2273C68.9367 19.2273 69.1422 19.171 69.3223 19.0642C69.5024 18.9575 69.6505 18.8042 69.751 18.6205L71.2476 15.8839L73.9842 14.3872C74.1679 14.2868 74.3211 14.1387 74.4279 13.9587C74.5347 13.7786 74.5911 13.5731 74.5911 13.3637C74.5911 13.1543 74.5347 12.9488 74.428 12.7687C74.3212 12.5886 74.1679 12.4406 73.9842 12.3401L71.2476 10.8433L69.751 8.10683C69.6505 7.92314 69.5024 7.76988 69.3223 7.66311C69.1422 7.55634 68.9367 7.5 68.7274 7.5C68.518 7.5 68.3125 7.55634 68.1324 7.66311C67.9523 7.76988 67.8042 7.92314 67.7038 8.10683L66.2071 10.8433L63.4705 12.3402C63.2868 12.4407 63.1336 12.5887 63.0268 12.7688C62.92 12.9489 62.8637 13.1544 62.8637 13.3638C62.8637 13.5731 62.92 13.7786 63.0268 13.9587C63.1336 14.1388 63.2869 14.2868 63.4706 14.3872ZM67.6266 12.7265C67.8223 12.6194 67.9833 12.4585 68.0904 12.2628L68.7274 11.0979L69.3644 12.2628C69.4715 12.4585 69.6325 12.6194 69.8282 12.7265L70.993 13.3637L69.8282 14.0007C69.6324 14.1077 69.4715 14.2687 69.3644 14.4644L68.7274 15.6293L68.0904 14.4644C67.9833 14.2686 67.8223 14.1077 67.6265 14.0007L66.4618 13.3636L67.6266 12.7265Z" fill="#F05900"/>
<path d="M8.57659 35.3872L11.3131 36.8839L12.8097 39.6205C12.9102 39.8042 13.0582 39.9575 13.2383 40.0642C13.4184 40.171 13.6239 40.2273 13.8333 40.2273C14.0427 40.2273 14.2482 40.171 14.4283 40.0642C14.6084 39.9575 14.7564 39.8042 14.8569 39.6205L16.3536 36.8839L19.0901 35.3872C19.2738 35.2868 19.4271 35.1387 19.5338 34.9587C19.6406 34.7786 19.697 34.5731 19.697 34.3637C19.697 34.1543 19.6407 33.9488 19.5339 33.7687C19.4271 33.5886 19.2738 33.4406 19.0902 33.3401L16.3536 31.8433L14.857 29.1068C14.7565 28.9231 14.6084 28.7699 14.4283 28.6631C14.2482 28.5563 14.0427 28.5 13.8334 28.5C13.624 28.5 13.4185 28.5563 13.2384 28.6631C13.0583 28.7699 12.9102 28.9231 12.8097 29.1068L11.3131 31.8433L8.57652 33.3402C8.39283 33.4407 8.23955 33.5887 8.13277 33.7688C8.02599 33.9489 7.96965 34.1544 7.96965 34.3637C7.96965 34.5731 8.02599 34.7786 8.13277 34.9587C8.23955 35.1388 8.3929 35.2868 8.57659 35.3872ZM12.7326 33.7265C12.9283 33.6194 13.0892 33.4585 13.1963 33.2628L13.8333 32.0979L14.4704 33.2628C14.5775 33.4585 14.7384 33.6194 14.9341 33.7265L16.0989 34.3637L14.9342 35.0007C14.7384 35.1077 14.5774 35.2687 14.4704 35.4644L13.8333 36.6293L13.1963 35.4644C13.0892 35.2687 12.9283 35.1077 12.7325 35.0007L11.5677 34.3637L12.7326 33.7265Z" fill="#F05900"/>
<path d="M77.9131 75.8235L71.5319 62.6895L70.1243 58.4646L67.9106 59.202L69.3423 63.4994C69.3583 63.5477 69.3775 63.5948 69.3997 63.6406L75.697 76.6018V77.5H78.0304V76.3333C78.0303 76.1567 77.9902 75.9824 77.9131 75.8235Z" fill="#F05900"/>
<path d="M65.1742 65.1032C65.081 64.8112 64.8767 64.5675 64.6054 64.4248L59.8396 61.9203L54.1864 54.0284C54.437 53.8988 54.7152 53.8319 54.9973 53.8332C55.2794 53.8345 55.5569 53.9041 55.8063 54.0359L59.784 56.1348C59.9937 56.2455 60.2322 56.2896 60.4677 56.2613C60.7032 56.233 60.9244 56.1336 61.102 55.9764C61.2795 55.8191 61.4049 55.6115 61.4614 55.3812C61.518 55.1509 61.503 54.9088 61.4185 54.6872L56.0943 40.7315C56.087 40.7124 56.0792 40.6936 56.0709 40.675C55.9097 40.3094 55.8779 39.8998 55.9809 39.5137C56.0839 39.1277 56.3154 38.7883 56.6373 38.5516L63.6981 47.9989C63.704 48.0067 63.7099 48.0146 63.716 48.0222C64.2924 48.7531 64.7287 49.5842 65.003 50.4737C65.0055 50.4818 65.0081 50.4897 65.0108 50.4977L67.1333 56.8686L69.347 56.1311L67.2285 49.772C66.8709 48.6184 66.3049 47.5401 65.5585 46.5906L57.9543 36.4163C57.8102 36.2235 57.6099 36.0799 57.381 36.0054C57.152 35.9309 56.9056 35.929 56.6755 36L56.465 36.065C55.9169 36.2345 55.4106 36.5175 54.9792 36.8957C54.5478 37.2739 54.201 37.7388 53.9613 38.26C53.7215 38.7812 53.5943 39.3471 53.5879 39.9207C53.5815 40.4944 53.6961 41.063 53.9241 41.5894L58.1348 52.6264L56.8952 51.9723C56.1375 51.5715 55.2727 51.4197 54.4237 51.5384C53.5747 51.6572 52.7847 52.0405 52.1661 52.6339L51.8001 52.9842C51.5973 53.1784 51.4713 53.4392 51.4453 53.7188C51.4193 53.9983 51.495 54.2779 51.6585 54.5062L58.1037 63.5039C58.2095 63.6517 58.3484 63.7727 58.5094 63.8573L63.0964 66.2679L66.3637 76.5148V77.5H68.697V76.3333C68.697 76.213 68.6784 76.0935 68.6419 75.9789L65.1742 65.1032Z" fill="#F05900"/>
<path d="M27.957 63.5038L34.4022 54.5062C34.5658 54.2779 34.6415 53.9983 34.6155 53.7188C34.5895 53.4392 34.4635 53.1784 34.2606 52.9842L33.8946 52.6337C33.2759 52.0404 32.4859 51.6572 31.637 51.5385C30.7881 51.4197 29.9233 51.5715 29.1655 51.9723L27.926 52.6264L32.1366 41.5894C32.3647 41.063 32.4792 40.4943 32.4728 39.9207C32.4664 39.347 32.3392 38.7811 32.0994 38.2598C31.8597 37.7386 31.5128 37.2737 31.0813 36.8956C30.6499 36.5174 30.1436 36.2344 29.5955 36.065L29.3852 36C29.1551 35.9289 28.9087 35.9308 28.6797 36.0053C28.4508 36.0798 28.2505 36.2234 28.1064 36.4163L20.5021 46.5907C19.7557 47.5402 19.1898 48.6185 18.8323 49.7722L14.5287 62.6899L8.14733 75.8451C8.07034 76.0038 8.03035 76.1779 8.03036 76.3543V77.5H10.3637V76.6223L16.6612 63.6399C16.6833 63.5943 16.7024 63.5474 16.7184 63.4994L21.05 50.4979C21.0527 50.4899 21.0552 50.482 21.0577 50.4738C21.3321 49.5844 21.7684 48.7533 22.3447 48.0224C22.3509 48.0147 22.3568 48.0068 22.3627 47.999L29.4234 38.5518C29.7453 38.7885 29.9769 39.1278 30.0799 39.5139C30.1828 39.8999 30.1511 40.3096 29.9898 40.6751C29.9816 40.6938 29.9738 40.7126 29.9665 40.7316L24.6422 54.6872C24.5577 54.9088 24.5427 55.1509 24.5993 55.3812C24.6558 55.6115 24.7812 55.8191 24.9588 55.9764C25.1363 56.1336 25.3575 56.233 25.593 56.2613C25.8285 56.2896 26.067 56.2455 26.2767 56.1348L30.2545 54.0359C30.5038 53.9041 30.7814 53.8345 31.0634 53.8332C31.3455 53.8319 31.6237 53.8988 31.8743 54.0284L26.2211 61.9203L21.4553 64.4248C21.184 64.5675 20.9797 64.8112 20.8866 65.1032L17.4188 75.9789C17.3823 76.0935 17.3637 76.213 17.3637 76.3333V77.5H19.697V76.5148L22.9643 66.2679L27.5513 63.8573C27.7122 63.7727 27.8512 63.6517 27.957 63.5038Z" fill="#F05900"/>
<path d="M50.0721 66.1429C50.1294 66.3514 50.2436 66.5399 50.4018 66.6873C50.5601 66.8347 50.7562 66.9352 50.9682 66.9776L61.4682 69.0776L61.9258 66.7895L52.1312 64.8306L50.5676 59.1447C50.6236 59.0993 50.6796 59.0534 50.7356 59.007C51.2687 59.1355 51.8153 59.2002 52.3637 59.1996V56.8663C49.7469 56.8663 47.697 54.6561 47.697 51.8346C47.6923 51.1622 47.8203 50.4955 48.0737 49.8727C48.3272 49.2499 48.7011 48.6833 49.174 48.2053C49.369 48.009 49.4879 47.7499 49.5094 47.4741C49.531 47.1982 49.4539 46.9237 49.2918 46.6995C48.6545 45.8159 48.3142 44.7528 48.3198 43.6634C48.3198 41.6528 49.4585 39.8388 51.2208 39.0419C51.3805 38.9697 51.5219 38.8625 51.6344 38.7282C51.747 38.5939 51.8278 38.436 51.8709 38.2661C51.9141 38.0963 51.9184 37.9189 51.8836 37.7472C51.8488 37.5754 51.7757 37.4138 51.6698 37.2741C51.3617 36.8696 51.1955 36.3748 51.197 35.8663C51.197 35.4505 51.308 35.0423 51.5187 34.6838C51.7293 34.3254 52.032 34.0298 52.3952 33.8275C52.7585 33.6253 53.1692 33.5238 53.5849 33.5336C54.0005 33.5434 54.406 33.6641 54.7594 33.8832C54.9453 33.9986 55.1598 34.0596 55.3786 34.059C55.5974 34.0585 55.8117 33.9964 55.9969 33.88C56.7334 33.4148 57.5865 33.1675 58.4576 33.1667C61.1026 33.1667 63.2545 35.4238 63.2545 38.1983C63.2562 39.0951 63.0262 39.9771 62.5869 40.7588L64.6177 41.9078C65.2978 40.6979 65.6318 39.3243 65.5832 37.9372C65.5346 36.5502 65.1053 35.2032 64.3422 34.0439C65.8359 31.4375 66.3145 28.3713 65.6862 25.4337C65.0579 22.496 63.367 19.8939 60.9379 18.1265L60.5981 17.8794C59.8108 17.3068 59.0023 16.7759 58.1725 16.2865C57.9571 13.8851 56.3235 11.6876 53.5176 10.0509C50.6978 8.4059 46.9733 7.5 43.0304 7.5C39.0874 7.5 35.3629 8.4059 32.543 10.0509C29.7372 11.6876 28.1035 13.8851 27.8881 16.2865C27.0592 16.7756 26.2506 17.3065 25.4625 17.8794L25.123 18.1265C23.674 19.1765 22.4761 20.535 21.6157 22.104L23.6598 23.2294C24.3554 21.9608 25.324 20.8624 26.4955 20.0135L26.8351 19.7664C31.5414 16.3437 37.2111 14.5 43.0304 14.5C48.8497 14.5 54.5194 16.3437 59.2257 19.7664L59.5654 20.0135C61.4293 21.3697 62.7588 23.3363 63.3229 25.5713C63.887 27.8062 63.6499 30.1682 62.6528 32.2465C61.7025 31.5261 60.5831 31.0618 59.4019 30.8979C58.46 27.9796 56.9218 25.63 54.8223 23.9059C52.4268 21.9387 49.2789 20.7715 45.4658 20.4364L45.2616 22.7609C51.2941 23.2908 55.1372 25.989 56.9693 30.9954C56.4081 31.119 55.8645 31.3118 55.3508 31.5691C54.5081 31.2132 53.5795 31.1126 52.6802 31.2798C51.7809 31.447 50.9505 31.8746 50.292 32.5096C49.6336 33.1445 49.1761 33.9589 48.9763 34.8515C48.7766 35.7442 48.8434 36.6758 49.1685 37.5308C47.6637 38.5951 46.6015 40.1743 46.1831 41.9692C45.7646 43.7642 46.019 45.6502 46.898 47.2702C45.8953 48.5798 45.3557 50.1852 45.3637 51.8346C45.3637 54.3815 46.533 56.588 48.3501 57.9054C46.4714 59.2655 44.6222 60 43.0304 60C41.4385 60 39.5893 59.2656 37.7106 57.9054C39.5276 56.5881 40.697 54.3815 40.697 51.8346C40.705 50.1852 40.1653 48.5799 39.1627 47.2702C40.0417 45.6503 40.2961 43.7642 39.8776 41.9693C39.4592 40.1744 38.397 38.5952 36.8922 37.531C37.2182 36.6759 37.2857 35.7439 37.0863 34.8508C36.8869 33.9577 36.4295 33.1429 35.7708 32.5076C35.1121 31.8724 34.2812 31.4448 33.3814 31.2779C32.4817 31.111 31.5527 31.2123 30.7101 31.569C30.1969 31.312 29.6539 31.1194 29.0934 30.9957C30.0032 28.5285 31.4248 26.5965 33.3313 25.2413C35.7346 23.5329 38.9978 22.6667 43.0304 22.6667V20.3333C38.5036 20.3333 34.7855 21.3448 31.9794 23.3394C29.4956 25.105 27.7083 27.6452 26.6587 30.8978C25.4775 31.0618 24.3582 31.5262 23.4078 32.2466C22.3718 30.0862 22.1576 27.6225 22.8053 25.3157L20.559 24.6843C20.1212 26.2432 19.9983 27.8737 20.1973 29.4807C20.3964 31.0876 20.9134 32.6389 21.7184 34.0439C20.9554 35.2032 20.5261 36.5501 20.4775 37.9372C20.4289 39.3242 20.7629 40.6979 21.4429 41.9078L23.4737 40.7588C23.0344 39.977 22.8045 39.095 22.8062 38.1983C22.8062 35.4238 24.9581 33.1667 27.6031 33.1667C28.4742 33.1675 29.3273 33.4148 30.0638 33.88C30.249 33.9965 30.4633 34.0586 30.6821 34.0591C30.9009 34.0597 31.1155 33.9987 31.3013 33.8832C31.7643 33.5961 32.3131 33.4801 32.8526 33.5553C33.3921 33.6304 33.8883 33.892 34.2552 34.2946C34.6221 34.6973 34.8365 35.2156 34.8613 35.7598C34.8861 36.3039 34.7197 36.8396 34.3909 37.2739C34.2851 37.4136 34.212 37.5753 34.1772 37.747C34.1423 37.9187 34.1467 38.0961 34.1898 38.266C34.2329 38.4358 34.3137 38.5938 34.4263 38.7281C34.5388 38.8624 34.6802 38.9697 34.8398 39.0419C36.6022 39.8388 37.7409 41.6529 37.7409 43.6633C37.7465 44.7528 37.4062 45.8158 36.7689 46.6995C36.6069 46.9237 36.5297 47.1982 36.5513 47.474C36.5729 47.7498 36.6917 48.009 36.8867 48.2052C37.3596 48.6832 37.7335 49.2499 37.987 49.8727C38.2404 50.4955 38.3684 51.1622 38.3637 51.8346C38.3637 54.6561 36.3138 56.8663 33.697 56.8663V59.1996C34.2454 59.2002 34.7919 59.1356 35.325 59.0072C35.381 59.0536 35.437 59.0995 35.4931 59.145L33.9295 64.8307L24.1349 66.7896L24.5925 69.0778L35.0925 66.9778C35.3045 66.9354 35.5006 66.8348 35.6589 66.6875C35.8171 66.5401 35.9313 66.3516 35.9886 66.1431L37.5179 60.5821C39.4122 61.735 41.2815 62.3333 43.0304 62.3333C44.7792 62.3333 46.6485 61.735 48.5429 60.582L50.0721 66.1429ZM43.0304 12.1667C38.8074 12.1589 34.6314 13.0518 30.7809 14.7858C32.4301 11.9533 37.3733 9.83333 43.0304 9.83333C48.6875 9.83333 53.6306 11.9533 55.2798 14.7858C51.4293 13.0518 47.2533 12.1589 43.0304 12.1667Z" fill="#F05900"/>
<path d="M50.0304 69.443V69.3333H47.697V69.443C47.6946 70.3412 48.0121 71.2109 48.5927 71.8963C49.1733 72.5816 49.979 73.0378 50.8653 73.1831L62.6719 75.1509L63.0555 72.8491L51.2489 70.8814C50.908 70.8255 50.5982 70.6501 50.3749 70.3865C50.1516 70.1229 50.0294 69.7884 50.0304 69.443Z" fill="#F05900"/>
<path d="M36.0304 69.443C36.0313 69.7884 35.9091 70.1229 35.6858 70.3865C35.4625 70.6501 35.1527 70.8255 34.8118 70.8814L23.0052 72.8491L23.3889 75.1509L35.1953 73.1831C36.0817 73.0378 36.8874 72.5816 37.468 71.8963C38.0486 71.2109 38.3661 70.3412 38.3637 69.443V69.3333H36.0304V69.443Z" fill="#F05900"/>
</svg>
