<svg width="86" height="85" viewBox="0 0 86 85" fill="none" xmlns="http://www.w3.org/2000/svg">
<path d="M52.3588 34.5923L53.5877 33.3634L52.1348 31.9104L50.9059 33.1393C50.479 33.5663 49.9114 33.8014 49.3077 33.8014H45.1899V35.8562H49.3075C50.4601 35.8562 51.5437 35.4074 52.3588 34.5923Z" fill="#F05900"/>
<path d="M35.0904 33.1393L33.8615 31.9104L32.4086 33.3634L33.6375 34.5923C34.4525 35.4073 35.5362 35.8562 36.6886 35.8562H40.8063V33.8014H36.6886C36.0849 33.8014 35.5173 33.5663 35.0904 33.1393Z" fill="#F05900"/>
<path d="M14.143 64.5814L23.7373 60.9284L24.4688 62.8496L14.8745 66.5026L14.143 64.5814Z" fill="#F05900"/>
<path d="M71.1255 66.4738L71.857 64.5536L66.9289 62.6762L68.2631 51.3356H52.8016L55.1214 71.0534V74.281C55.1214 76.0559 56.5655 77.5 58.3404 77.5H62.7242C64.4992 77.5 65.9433 76.0559 65.9433 74.281V71.0534L66.6812 64.7807L71.1255 66.4738ZM57.0623 69.9658L55.6279 57.774H65.4364L64.002 69.9658H57.0623ZM65.9523 53.3904L65.6783 55.7192H55.3863L55.1123 53.3904H65.9523ZM62.7242 75.4452H58.3404C57.6983 75.4452 57.1762 74.923 57.1762 74.281V72.0205H63.8885V74.281C63.8885 74.923 63.3663 75.4452 62.7242 75.4452Z" fill="#F05900"/>
<path d="M39.7104 60.1027H41.9022V62.1575H39.7104V60.1027Z" fill="#F05900"/>
<path d="M44.094 60.1027H46.2857V62.1575H44.094V60.1027Z" fill="#F05900"/>
<path d="M50.8162 49.7145L51.3937 48.9926C51.5166 49.001 51.6403 49.0069 51.7652 49.0069C52.5216 49.0069 53.2692 48.8475 53.957 48.5426C54.6448 48.8475 55.3923 49.0069 56.1488 49.0069C59.1323 49.0069 61.5597 46.5795 61.5597 43.5959C61.5597 42.3721 61.1508 41.2423 60.4633 40.3349C60.4633 40.3262 60.4638 40.317 60.4638 40.3082C60.4638 38.6682 59.7294 37.1975 58.5734 36.2044C59.7136 35.427 60.4638 34.1181 60.4638 32.637C60.4638 30.6116 59.061 28.9088 57.1762 28.4464V26.0616C57.1762 21.0079 54.5178 16.5641 50.5266 14.0529C50.0136 10.356 46.834 7.5 42.9981 7.5C39.1622 7.5 35.9826 10.356 35.4696 14.0529C31.4783 16.5641 28.82 21.0079 28.82 26.0616V28.4464C26.9352 28.9088 25.5323 30.6116 25.5323 32.637C25.5323 34.6867 26.9693 36.4059 28.8885 36.8433C28.9364 37.4004 29.0105 37.9553 29.1085 38.5058C27.0253 39.259 25.5323 41.2562 25.5323 43.5959C25.5323 43.6045 25.5329 43.6138 25.5329 43.6226C24.8452 44.5301 24.4364 45.6599 24.4364 46.8836C24.4364 49.8671 26.8638 52.2945 29.8474 52.2945C30.6038 52.2945 31.3514 52.1352 32.0392 51.8303C32.727 52.1352 33.4745 52.2945 34.231 52.2945C35.0375 52.2945 35.8029 52.1158 36.4912 51.7979V56.0385L31.267 58.0288C30.6766 57.2897 29.7688 56.8151 28.7515 56.8151C26.9764 56.8151 25.5323 58.2592 25.5323 60.0342C25.5323 61.8093 26.9764 63.2534 28.7515 63.2534C30.5266 63.2534 31.9707 61.8093 31.9707 60.0342C31.9707 60.0095 31.9693 59.9849 31.9688 59.9603L38.546 57.4547V52.4049C39.8699 53.0486 41.3319 53.3904 42.8282 53.3904H43.1679C44.6779 53.3904 46.1359 53.0486 47.4501 52.4101V57.4547L50.9885 58.8026L51.72 56.8823L49.5049 56.0385V51.0667C49.9789 50.6631 50.4185 50.2116 50.8162 49.7145ZM28.7515 61.1986C28.1094 61.1986 27.5871 60.6763 27.5871 60.0342C27.5871 59.3922 28.1094 58.8699 28.7515 58.8699C29.3936 58.8699 29.9159 59.3922 29.9159 60.0342C29.9159 60.6763 29.3936 61.1986 28.7515 61.1986ZM56.1488 46.9521C55.56 46.9521 54.98 46.7964 54.4716 46.5023L53.957 46.2045L53.4423 46.5023C52.934 46.7964 52.354 46.9521 51.7652 46.9521C49.9146 46.9521 48.409 45.4466 48.409 43.5959C48.409 42.5334 48.8979 41.5769 49.6863 40.9584C49.8316 42.1427 50.3623 43.27 51.2268 44.1344L52.6797 42.6814C51.861 41.8627 51.5236 40.6647 51.7873 39.5385C52.1445 38.0149 53.4845 36.9521 55.0529 36.9521C56.2216 36.9521 57.2522 37.5529 57.8534 38.4616C57.3171 38.283 56.7444 38.1849 56.1488 38.1849V40.2397C57.9993 40.2397 59.5049 41.7452 59.5049 43.5959C59.5049 45.4466 57.9993 46.9521 56.1488 46.9521ZM58.409 32.637C58.409 33.5132 57.9068 34.2727 57.1762 34.6477V30.6263C57.9068 31.0012 58.409 31.7608 58.409 32.637ZM42.9981 9.55479C45.2416 9.55479 47.177 10.8941 48.0503 12.8147C46.48 12.2138 44.777 11.8836 42.9981 11.8836C41.2192 11.8836 39.5162 12.2138 37.9459 12.8147C38.8192 10.8941 40.7545 9.55479 42.9981 9.55479ZM42.9981 13.9384C49.4092 13.9384 54.6729 18.9407 55.0934 25.247C52.5985 21.1786 48.1101 18.4589 42.9981 18.4589C37.886 18.4589 33.3977 21.1786 30.9027 25.247C31.3233 18.9407 36.587 13.9384 42.9981 13.9384ZM27.5871 32.637C27.5871 31.7608 28.0893 31.0012 28.82 30.6263V34.6477C28.0893 34.2727 27.5871 33.5132 27.5871 32.637ZM32.5538 49.79L32.0392 49.4922L31.5245 49.79C31.0162 50.0841 30.4362 50.2397 29.8474 50.2397C27.9968 50.2397 26.4912 48.7342 26.4912 46.8836C26.4912 45.0329 27.9968 43.5274 29.8474 43.5274V41.4726C29.2518 41.4726 28.679 41.5707 28.1427 41.7493C28.744 40.8405 29.7745 40.2397 30.9433 40.2397C32.5116 40.2397 33.8516 41.3026 34.2089 42.826C34.4726 43.9523 34.1352 45.1504 33.3164 45.9689L34.7693 47.4219C35.6338 46.5574 36.1645 45.4303 36.3099 44.2459C37.0982 44.8644 37.5871 45.8211 37.5871 46.8834C37.5871 48.7341 36.0815 50.2396 34.231 50.2396C33.6422 50.2397 33.0622 50.0841 32.5538 49.79ZM42.8282 51.3356C41.316 51.3356 39.8483 50.8932 38.5967 50.0753C39.2531 49.1799 39.642 48.0764 39.642 46.8836C39.642 44.5564 38.19 42.5397 36.043 41.784C35.3086 39.6974 33.3833 38.2677 31.1394 38.1886C30.9645 37.2207 30.8748 36.2368 30.8748 35.2534V32.637C30.8748 25.9522 36.3133 20.5137 42.9981 20.5137C49.6829 20.5137 55.1214 25.9522 55.1214 32.637V34.899C55.0985 34.8988 55.0759 34.8973 55.0529 34.8973C52.7256 34.8973 50.709 36.3493 49.9533 38.4963C47.8063 39.2521 46.3542 41.2688 46.3542 43.5959C46.3542 45.6715 47.5296 47.4768 49.249 48.3841L49.2116 48.4308C47.7349 50.2769 45.532 51.3356 43.1679 51.3356H42.8282Z" fill="#F05900"/>
<path d="M21.0803 41.3356C22.8553 41.3356 24.2994 39.8915 24.2994 38.1164C24.2994 36.3414 22.8553 34.8973 21.0803 34.8973C19.3052 34.8973 17.8611 36.3414 17.8611 38.1164C17.8611 39.8915 19.3052 41.3356 21.0803 41.3356ZM21.0803 36.9521C21.7223 36.9521 22.2446 37.4744 22.2446 38.1164C22.2446 38.7585 21.7223 39.2808 21.0803 39.2808C20.4382 39.2808 19.9159 38.7585 19.9159 38.1164C19.9159 37.4744 20.4382 36.9521 21.0803 36.9521Z" fill="#F05900"/>
<path d="M67.1077 49.0069C68.8827 49.0069 70.3268 47.5627 70.3268 45.7877C70.3268 44.0126 68.8827 42.5685 67.1077 42.5685C65.3326 42.5685 63.8885 44.0126 63.8885 45.7877C63.8885 47.5627 65.3326 49.0069 67.1077 49.0069ZM67.1077 44.6233C67.7497 44.6233 68.272 45.1456 68.272 45.7877C68.272 46.4297 67.7497 46.9521 67.1077 46.9521C66.4656 46.9521 65.9433 46.4297 65.9433 45.7877C65.9433 45.1456 66.4656 44.6233 67.1077 44.6233Z" fill="#F05900"/>
</svg>
