<svg width="45" height="43" viewBox="0 0 45 43" fill="none" xmlns="http://www.w3.org/2000/svg">
<path d="M31.3096 18.6148C34.7075 18.6148 37.4815 15.8141 37.4815 12.3643C37.4815 8.91459 34.7159 6.11381 31.3096 6.11381C27.9875 6.0455 25.087 8.99998 25.1376 12.3643C25.146 15.8141 27.9116 18.6148 31.3096 18.6148ZM28.6283 7.79599C32.0178 5.66125 36.6468 8.3254 36.5709 12.3729C36.5709 15.3103 34.21 17.6926 31.318 17.6926C25.9976 17.6585 24.0836 10.5711 28.6283 7.79599ZM29.1342 14.055C29.7328 14.6101 30.5001 14.9175 31.318 14.9175C32.1359 14.9175 32.92 14.6015 33.5186 14.038C33.7041 13.8672 33.9908 13.8757 34.1679 14.0636C34.3365 14.2514 34.3281 14.5418 34.1426 14.7211C33.3753 15.4469 32.3719 15.8482 31.318 15.8482C30.2809 15.8482 29.286 15.4554 28.5187 14.7467C28.3332 14.5759 28.3248 14.2771 28.4934 14.0892C28.6536 13.8928 28.9487 13.8757 29.1342 14.055ZM29.0077 12.2277C30.888 12.1765 30.888 9.38423 29.0077 9.333C27.1275 9.38423 27.1275 12.1765 29.0077 12.2277ZM29.0077 10.2552C29.6823 10.2637 29.6823 11.2799 29.0077 11.297C28.3332 11.2884 28.3332 10.2723 29.0077 10.2552ZM33.6198 12.2277C35.5001 12.1765 35.5001 9.38423 33.6198 9.333C31.7311 9.38423 31.7396 12.1765 33.6198 12.2277ZM33.6198 10.2552C34.2944 10.2637 34.2944 11.2799 33.6198 11.297C32.9453 11.2884 32.9453 10.2723 33.6198 10.2552ZM34.5473 22.8416C32.3635 22.8331 30.205 23.6187 28.544 25.0276L28.0044 22.5428C27.7261 21.2448 26.8155 20.1945 25.5845 19.7334L22.1191 18.4526C20.6435 17.9659 20.4749 17.6841 20.1629 18.6148L19.5306 16.796C21.082 15.6347 22.06 13.7049 22.1528 11.63C23.0381 10.7078 24.6823 7.48859 22.7177 5.00375C22.5406 2.39083 19.9184 0.956288 17.8948 1.70772C16.141 0.384178 13.2911 0.922132 12.2119 3.27888C8.72119 4.12424 7.50703 8.39371 10.222 11.3994C10.2473 13.5683 11.2422 15.6006 12.8527 16.8046L12.2119 18.6234C12.1191 18.316 11.9842 17.9317 11.5879 18.0171C11.4446 18.0427 10.7448 18.2904 10.3316 18.4355L6.79877 19.742C5.55089 20.1945 4.6487 21.2448 4.37046 22.5513L1.07369 37.7506C0.871327 38.6728 1.09055 39.6292 1.67233 40.3721C2.26255 41.115 3.13944 41.5419 4.07535 41.5419H28.2995C28.9909 41.5419 29.6485 41.3114 30.1797 40.893C36.3011 44.2658 44.0919 39.5011 43.9992 32.4138C43.9992 27.1367 39.7581 22.8416 34.5473 22.8416ZM10.0955 5.90034C10.7954 4.67073 12.1023 4.26086 12.6335 4.13278C12.7768 4.09862 12.8948 3.99615 12.9539 3.85953C13.7802 1.75895 16.2169 1.44301 17.5238 2.59577C17.6503 2.69823 17.8274 2.72385 17.9876 2.66408C18.1899 2.57869 19.2439 2.19444 20.3063 2.74947C21.1916 3.21911 21.7649 4.15839 21.8071 5.20869C21.8071 5.31115 21.8493 5.40508 21.9083 5.48193C23.3922 7.18118 22.5238 9.70017 21.6806 10.7419C20.4749 10.0673 19.4884 9.07683 18.8476 7.87284C18.7633 7.71914 18.6115 7.62521 18.4429 7.62521C17.7683 7.70206 17.1022 7.88138 16.453 7.87284C15.6098 7.92407 14.7835 7.7106 13.9488 7.57397C13.7717 7.5569 13.6031 7.63375 13.5104 7.79599C12.819 8.9829 11.9168 9.93926 10.8038 10.6907C9.60651 9.27323 9.29454 7.31781 10.0955 5.90034ZM11.1411 11.6471C12.3974 10.8615 13.426 9.8368 14.2186 8.58157C15.5002 8.87189 16.824 8.8719 18.114 8.6328C18.8054 9.90511 20.2978 11.1603 21.2337 11.6129C20.7278 18.7515 11.6891 18.7685 11.1411 11.6471ZM19.4968 19.5712C17.9201 21.4412 14.6065 21.3644 12.8948 19.6737C12.819 19.4858 12.996 19.1869 13.0635 18.9906C13.2574 18.427 13.4513 17.8719 13.6453 17.3084C15.2136 18.1367 17.1697 18.1367 18.738 17.3084C18.9741 18.0683 19.3029 18.8112 19.4968 19.5712ZM28.291 40.5087C26.4782 40.6624 24.657 40.6966 22.8442 40.5941C22.8442 39.2962 22.8358 37.9983 22.8358 36.7003C22.8358 36.4527 22.802 36.1453 22.5828 36.0343C22.1781 35.8464 21.9167 36.4783 21.9251 36.9309C21.9251 38.1605 21.9336 39.3901 21.9336 40.6112C17.8358 40.6112 13.7464 40.6112 9.64867 40.6112C9.64867 39.3816 9.6571 38.152 9.6571 36.9223C9.6571 36.4783 9.39572 35.8379 8.99943 36.0258C8.77178 36.1282 8.73805 36.4356 8.73805 36.6918C8.73805 38.0068 8.72962 39.3133 8.72962 40.6283C7.54919 40.3209 6.30974 40.6624 5.09558 40.6966C2.80217 40.7478 1.41938 39.484 2.11921 37.17C2.8359 33.8739 3.56102 30.5779 4.27771 27.2819C5.3401 21.0143 5.53403 21.0399 11.3434 19.0503C13.4682 22.8075 18.8982 22.8075 21.0314 19.0589C24.5811 20.4678 27.1359 20.1433 27.5743 24.8056C27.7092 25.4033 27.5996 26.001 27.1612 26.4365C23.7548 30.6975 24.775 37.3749 29.2944 40.3892C28.9571 40.4489 28.6199 40.4831 28.291 40.5087ZM34.5473 41.004C28.8559 41.1662 24.7413 35.2487 26.4023 29.835C29.1173 21.8682 39.8424 21.7999 42.6585 29.7326C44.4123 35.1548 40.2893 41.1577 34.5473 41.004ZM39.5726 33.5324H29.5305C29.2354 33.5238 28.9993 33.8483 29.092 34.1301C30.7615 39.5267 38.3331 39.5267 40.011 34.1301C40.1038 33.8483 39.8677 33.5238 39.5726 33.5324ZM34.5473 37.2724C32.6418 37.2724 30.9639 36.1624 30.1881 34.4546H38.9065C38.1308 36.1709 36.4444 37.2724 34.5473 37.2724ZM28.9318 29.9119C28.9318 28.8018 29.8256 27.9052 30.9133 27.9052C32.001 27.9052 32.8947 28.8103 32.8947 29.9119C32.8947 30.168 32.6923 30.373 32.4394 30.373C32.1864 30.373 31.9841 30.168 31.9841 29.9119C31.9504 28.4773 29.8762 28.4773 29.8425 29.9119C29.8425 30.5181 28.9403 30.5096 28.9318 29.9119ZM40.1628 29.9119C40.1628 30.5181 39.2522 30.5181 39.2522 29.9119C39.2184 28.4773 37.1443 28.4773 37.1105 29.9119C37.1105 30.5181 36.1999 30.5181 36.1999 29.9119C36.2758 27.2477 40.0785 27.2563 40.1628 29.9119ZM27.2792 3.49236C27.8779 3.49236 28.3669 3.98762 28.3669 4.59388C28.3669 5.20015 29.2775 5.20015 29.2775 4.59388C29.2775 3.98762 29.7666 3.49236 30.3652 3.49236C30.9639 3.49236 30.9639 2.57015 30.3652 2.57015C29.7666 2.57015 29.2775 2.07489 29.2775 1.46862C29.2775 0.862359 28.3669 0.862359 28.3669 1.46862C28.3669 2.07489 27.8779 2.57015 27.2792 2.57015C26.6806 2.56161 26.6806 3.48382 27.2792 3.49236ZM28.8222 2.74947C28.9065 2.85194 28.9993 2.94586 29.092 3.02271C28.9909 3.1081 28.8981 3.20203 28.8222 3.29596C28.7379 3.19349 28.6452 3.09956 28.5524 3.02271C28.6452 2.94586 28.7379 2.85194 28.8222 2.74947ZM37.2201 18.9393C38.3415 18.9393 39.2522 19.8615 39.2522 20.9972C39.2522 21.6035 40.1628 21.6035 40.1628 20.9972C40.1628 19.8615 41.0734 18.9393 42.1948 18.9393C42.7935 18.9393 42.7935 18.0171 42.1948 18.0171C41.0734 18.0171 40.1628 17.0949 40.1628 15.9592C40.1628 15.353 39.2522 15.353 39.2522 15.9592C39.2522 17.0949 38.3415 18.0171 37.2201 18.0171C36.6215 18.0171 36.6215 18.9308 37.2201 18.9393ZM39.7075 17.5475C39.9436 17.9232 40.2555 18.2391 40.6181 18.4697C40.2471 18.7088 39.9351 19.0247 39.7075 19.3919C39.4714 19.0162 39.1594 18.7002 38.7969 18.4697C39.1594 18.2391 39.4714 17.9232 39.7075 17.5475ZM2.43961 12.2277C3.56102 12.2277 4.47164 13.1499 4.47164 14.2856C4.47164 14.8919 5.38226 14.8919 5.38226 14.2856C5.38226 13.1499 6.29287 12.2277 7.41428 12.2277C8.01293 12.2277 8.01293 11.3055 7.41428 11.3055C6.29287 11.3055 5.38226 10.3833 5.38226 9.24761C5.38226 8.64134 4.47164 8.64134 4.47164 9.24761C4.47164 10.3833 3.56102 11.3055 2.43961 11.3055C1.84097 11.3055 1.84097 12.2192 2.43961 12.2277ZM4.92695 10.8359C5.16303 11.2116 5.475 11.5275 5.83756 11.7581C5.46657 11.9972 5.1546 12.3131 4.92695 12.6803C4.69086 12.3046 4.37889 11.9886 4.01633 11.7581C4.37889 11.5275 4.69086 11.2116 4.92695 10.8359Z" fill="white" stroke="white" stroke-width="0.4"/>
</svg>
